<?xml version="1.0" encoding="utf-8"?>
<!-- Generator: Adobe Illustrator 23.0.3, SVG Export Plug-In . SVG Version: 6.00 Build 0)  -->
<svg version="1.1" id="Capa_1" xmlns="http://www.w3.org/2000/svg" xmlns:xlink="http://www.w3.org/1999/xlink" x="0px" y="0px"
	 viewBox="0 0 512 512" style="enable-background:new 0 0 512 512;" xml:space="preserve">
<style type="text/css">
	.st0{fill:#111E6C;}
</style>
<g>
	<path class="st0" d="M474,173.8c-4.2,1.4-6.5,5.9-5.1,10.1c7.6,23.2,11.4,47.5,11.4,72.1c0,62-24.1,120.3-68,164.2
		s-102.2,68-164.2,68S127.9,464,84,420.2S16,318,16,256S40.1,135.7,84,91.8s102.2-68,164.2-68c32.9,0,64.7,6.7,94.5,20
		c28.8,12.8,54.3,31.1,75.8,54.3c3,3.2,8.1,3.4,11.3,0.4c3.2-3,3.4-8.1,0.4-11.3c-23-24.8-50.3-44.3-81-58
		C317.3,15,283.3,7.8,248.2,7.8c-66.3,0-128.6,25.8-175.5,72.7C25.8,127.4,0,189.7,0,256c0,66.3,25.8,128.6,72.7,175.5
		c46.9,46.9,109.2,72.7,175.5,72.7s128.6-25.8,175.5-72.7c46.9-46.9,72.7-109.2,72.7-175.5c0-26.3-4.1-52.3-12.2-77.1
		C482.8,174.7,478.2,172.4,474,173.8z"/>
	<path class="st0" d="M505,83.3c-4.5-4.5-10.6-7-17-7s-12.4,2.5-17,7l-7.2,7.2c-3.1,3.1-3.1,8.2,0,11.3c3.1,3.1,8.2,3.1,11.3,0
		l7.2-7.2c1.5-1.5,3.5-2.3,5.7-2.3s4.1,0.8,5.7,2.3c1.5,1.5,2.3,3.5,2.3,5.7s-0.8,4.1-2.3,5.7L217.8,381.8c-1.5,1.5-3.5,2.3-5.7,2.3
		s-4.1-0.8-5.7-2.3L98.7,274c-1.5-1.5-2.3-3.5-2.3-5.7c0-2.1,0.8-4.1,2.4-5.7c1.5-1.5,3.5-2.3,5.7-2.3s4.2,0.8,5.7,2.3l96.4,96.4
		c1.5,1.5,3.5,2.3,5.7,2.3s4.2-0.8,5.7-2.3l234.8-234.8c3.1-3.1,3.1-8.2,0-11.3c-3.1-3.1-8.2-3.1-11.3,0L212.1,342.1l-90.8-90.8
		c-4.5-4.5-10.6-7-17-7s-12.4,2.5-17,7c-4.5,4.5-7,10.6-7,17c0,6.4,2.5,12.4,7,17l107.7,107.7c4.5,4.5,10.6,7,17,7s12.4-2.5,17-7
		L505,117.2c4.5-4.5,7-10.6,7-17S509.5,87.8,505,83.3z"/>
</g>
</svg>
