<?xml version="1.0" encoding="utf-8"?>
<!-- Generator: Adobe Illustrator 23.0.3, SVG Export Plug-In . SVG Version: 6.00 Build 0)  -->
<svg version="1.1" id="Layer_1" xmlns="http://www.w3.org/2000/svg" xmlns:xlink="http://www.w3.org/1999/xlink" x="0px" y="0px"
	 viewBox="0 0 512 512" style="enable-background:new 0 0 512 512;" xml:space="preserve">
<style type="text/css">
	.st0{fill:#111E6C;}
</style>
<g id="Outline">
	<g>
		<path class="st0" d="M456,112H272c-8.7,0-17.1-2.8-24-8l-38.4-28.8C199.9,68,188.1,64,176,64H96c-22.1,0-40,17.9-40,40v48
			c0,4.4,3.6,8,8,8s8-3.6,8-8v-48c0-13.3,10.7-24,24-24h80c8.7,0,17.1,2.8,24,8l38.4,28.8c9.7,7.2,21.5,11.2,33.6,11.2h184
			c13.3,0,24,10.7,24,24v32.2c-6.9-5.3-15.3-8.2-24-8.2h-24v-24c0-4.4-3.6-8-8-8H104c-4.4,0-8,3.6-8,8v24H56c-22.1,0-40,17.9-40,40
			v168c0,4.4,3.6,8,8,8s8-3.6,8-8V216c0-13.3,10.7-24,24-24h400c13.3,0,24,10.7,24,24v56c0,4.4,3.6,8,8,8s8-3.6,8-8V152
			C496,129.9,478.1,112,456,112z M112,160h304v16H112V160z"/>
		<path class="st0" d="M272,256H136c-13.3,0-24,10.7-24,24v128c0,13.3,10.7,24,24,24h240c13.3,0,24-10.7,24-24V280
			c0-13.3-10.7-24-24-24h-72c-4.4,0-8,3.6-8,8s3.6,8,8,8h72c4.4,0,8,3.6,8,8v128c0,4.4-3.6,8-8,8H136c-4.4,0-8-3.6-8-8V280
			c0-4.4,3.6-8,8-8h136c4.4,0,8-3.6,8-8S276.4,256,272,256z"/>
		<path class="st0" d="M344,296H200c-4.4,0-8,3.6-8,8s3.6,8,8,8h144c4.4,0,8-3.6,8-8S348.4,296,344,296z"/>
		<path class="st0" d="M352,344c0-4.4-3.6-8-8-8H168c-4.4,0-8,3.6-8,8s3.6,8,8,8h176C348.4,352,352,348.4,352,344z"/>
		<path class="st0" d="M168,376c-4.4,0-8,3.6-8,8s3.6,8,8,8h136c4.4,0,8-3.6,8-8s-3.6-8-8-8H168z"/>
		<path class="st0" d="M488,296c-4.4,0-8,3.6-8,8v152c0,13.3-10.7,24-24,24H56c-13.3,0-24-10.7-24-24v-40c0-4.4-3.6-8-8-8
			s-8,3.6-8,8v40c0,22.1,17.9,40,40,40h400c22.1,0,40-17.9,40-40V304C496,299.6,492.4,296,488,296z"/>
	</g>
</g>
</svg>
