<?xml version="1.0" encoding="utf-8"?>
<!-- Generator: Adobe Illustrator 23.0.3, SVG Export Plug-In . SVG Version: 6.00 Build 0)  -->
<svg version="1.1" id="Capa_1" xmlns="http://www.w3.org/2000/svg" xmlns:xlink="http://www.w3.org/1999/xlink" x="0px" y="0px"
	 viewBox="0 0 409.6 409.6" style="enable-background:new 0 0 409.6 409.6;" xml:space="preserve">
<style type="text/css">
	.st0{fill:#111E6C;}
</style>
<g>
	<g>
		<path class="st0" d="M314.9,50c-24.7,0-44.7,20.1-44.7,44.8c0,24.7,20.1,44.7,44.7,44.7c24.7,0,44.7-20.1,44.7-44.7
			C359.6,70,339.6,50,314.9,50z M314.9,129.2c-19,0-34.5-15.5-34.5-34.5c0-19,15.5-34.5,34.5-34.5c19,0,34.5,15.5,34.5,34.5
			C349.4,113.7,333.9,129.2,314.9,129.2z"/>
	</g>
</g>
<g>
	<g>
		<path class="st0" d="M405,109c-7.3-0.8-12.8-6.9-12.8-14.2s5.5-13.5,12.8-14.2c1.4-0.2,2.8-0.9,3.6-2.1c0.9-1.2,1.2-2.7,0.9-4.1
			c-2.5-11.4-6.9-22.2-13.3-32.1c-0.8-1.2-2.1-2-3.5-2.3c-1.4-0.2-2.9,0.2-4,1.1c-5.7,4.6-13.9,4.2-19.1-1c-5.2-5.2-5.6-13.4-1-19.1
			c0.9-1.1,1.3-2.6,1.1-4c-0.2-1.4-1.1-2.7-2.3-3.5C357.5,7,346.7,2.6,335.3,0.1c-1.4-0.3-2.9,0-4.1,0.9c-1.2,0.9-1.9,2.2-2.1,3.6
			c-0.8,7.3-6.9,12.8-14.2,12.8c-7.3,0-13.5-5.5-14.2-12.8c-0.2-1.4-0.9-2.8-2.1-3.6c-1.2-0.9-2.7-1.2-4.1-0.9
			c-11.4,2.5-22.2,6.9-32.1,13.3c-1.2,0.8-2,2.1-2.3,3.5c-0.2,1.4,0.2,2.9,1.1,4c4.6,5.7,4.2,13.9-1,19.1c-5.2,5.2-13.4,5.6-19.1,1
			c-1.1-0.9-2.6-1.3-4-1.1c-1.4,0.2-2.7,1.1-3.5,2.3c-6.4,9.9-10.8,20.6-13.3,32.1c-0.3,1.4,0,2.9,0.9,4.1s2.2,1.9,3.6,2.1
			c7.3,0.8,12.8,6.9,12.8,14.2s-5.5,13.5-12.8,14.2c-1.4,0.2-2.8,0.9-3.6,2.1c-0.9,1.2-1.2,2.7-0.9,4.1c2.5,11.4,6.9,22.2,13.3,32.1
			c0.8,1.2,2.1,2,3.5,2.3c1.4,0.2,2.9-0.2,4-1.1c5.7-4.6,13.9-4.2,19.1,1c5.2,5.2,5.6,13.4,1,19.1c-0.9,1.1-1.3,2.6-1.1,4
			c0.2,1.4,1.1,2.7,2.3,3.5c9.9,6.4,20.6,10.8,32.1,13.3c1.4,0.3,2.9,0,4.1-0.9c1.2-0.9,1.9-2.2,2.1-3.6c0.8-7.3,6.9-12.8,14.2-12.8
			c7.3,0,13.5,5.5,14.2,12.8c0.2,1.4,0.9,2.8,2.1,3.6c0.9,0.6,1.9,1,3,1c0.4,0,0.7,0,1.1-0.1c11.4-2.5,22.2-6.9,32.1-13.3
			c1.2-0.8,2-2.1,2.3-3.5c0.2-1.4-0.2-2.9-1.1-4c-4.6-5.7-4.2-13.9,1-19.1c5.2-5.2,13.4-5.6,19.1-1c1.1,0.9,2.6,1.3,4,1.1
			c1.4-0.2,2.7-1.1,3.5-2.3c6.4-9.9,10.8-20.6,13.3-32.1c0.3-1.4,0-2.9-0.9-4.1C407.8,109.9,406.5,109.1,405,109z M390.2,137.3
			c-9.2-4.4-20.4-2.7-27.9,4.8c-7.5,7.5-9.2,18.7-4.8,27.9c-6.2,3.5-12.7,6.2-19.5,8.1c-3.4-9.6-12.5-16.3-23.1-16.3
			c-10.6,0-19.7,6.7-23.1,16.3c-6.8-1.9-13.3-4.6-19.5-8.1c4.4-9.2,2.7-20.4-4.8-27.9c-7.5-7.5-18.7-9.2-27.9-4.8
			c-3.5-6.1-6.2-12.7-8.1-19.5c9.6-3.4,16.3-12.5,16.3-23.1s-6.7-19.7-16.3-23.1c1.9-6.8,4.6-13.3,8.1-19.5
			c9.2,4.4,20.4,2.7,27.9-4.8c7.5-7.5,9.2-18.7,4.8-27.9c6.1-3.5,12.7-6.2,19.5-8.1c3.4,9.6,12.5,16.3,23.1,16.3
			c10.6,0,19.7-6.7,23.1-16.3c6.8,1.9,13.3,4.6,19.5,8.1c-4.4,9.2-2.7,20.4,4.8,27.9c7.5,7.5,18.7,9.2,27.9,4.8
			c3.5,6.2,6.2,12.7,8.1,19.5C388.7,75,382,84.1,382,94.7s6.7,19.7,16.3,23.1C396.4,124.7,393.7,131.2,390.2,137.3z"/>
	</g>
</g>
<g>
	<g>
		<path class="st0" d="M136.3,210.2c-34.8,0-63.1,28.3-63.1,63.1s28.3,63.1,63.1,63.1s63.1-28.3,63.1-63.1S171.1,210.2,136.3,210.2z
			 M136.3,326.2c-29.2,0-52.9-23.7-52.9-52.9s23.7-52.9,52.9-52.9c29.2,0,52.9,23.7,52.9,52.9C189.1,302.5,165.4,326.2,136.3,326.2z
			"/>
	</g>
</g>
<g>
	<g>
		<path class="st0" d="M267.9,296.5c-11.9-1.3-20.8-11.2-20.8-23.2s9-21.9,20.8-23.2c1.4-0.1,2.8-0.9,3.6-2.1
			c0.9-1.2,1.2-2.7,0.9-4.1c-3.5-16.4-10-31.9-19.1-46.1c-0.8-1.2-2.1-2-3.5-2.3c-1.4-0.2-2.9,0.2-4,1.1c-9.3,7.5-22.7,6.8-31.1-1.7
			c-8.5-8.5-9.2-21.8-1.7-31.1c0.9-1.1,1.3-2.6,1.1-4c-0.2-1.4-1.1-2.7-2.3-3.5c-14.2-9.2-29.7-15.6-46.1-19.1
			c-1.4-0.3-2.9,0-4.1,0.9c-1.2,0.9-1.9,2.2-2.1,3.6c-1.3,11.9-11.2,20.9-23.2,20.9s-21.9-9-23.2-20.9c-0.2-1.4-0.9-2.8-2.1-3.6
			c-1.2-0.9-2.6-1.1-4.1-0.9c-16.4,3.5-32,10-46.1,19.1c-1.2,0.8-2,2.1-2.3,3.5c-0.2,1.4,0.2,2.9,1.1,4c7.5,9.3,6.8,22.7-1.7,31.1
			c-8.5,8.4-21.8,9.2-31.1,1.7c-1.1-0.9-2.6-1.3-4-1.1c-1.4,0.2-2.7,1.1-3.5,2.3C10.1,212,3.6,227.6,0.1,244c-0.3,1.4,0,2.9,0.9,4.1
			c0.9,1.2,2.2,1.9,3.6,2.1c11.9,1.3,20.9,11.2,20.9,23.2s-9,21.9-20.9,23.2c-1.4,0.1-2.8,0.9-3.6,2.1c-0.9,1.2-1.2,2.7-0.9,4.1
			c3.5,16.4,10,32,19.1,46.1c0.8,1.2,2.1,2,3.5,2.3c1.4,0.2,2.9-0.2,4-1.1c9.3-7.5,22.7-6.8,31.1,1.7c8.5,8.5,9.2,21.8,1.7,31.1
			c-0.9,1.1-1.3,2.6-1.1,4c0.2,1.4,1.1,2.7,2.3,3.5c14.2,9.2,29.7,15.6,46.1,19.1c1.4,0.3,2.9,0,4.1-0.9c1.2-0.9,1.9-2.2,2.1-3.6
			c1.3-11.9,11.2-20.9,23.2-20.9s21.9,9,23.2,20.9c0.2,1.4,0.9,2.8,2.1,3.6c0.9,0.6,1.9,1,3,1c0.4,0,0.7,0,1.1-0.1
			c16.4-3.5,32-10,46.1-19.1c1.2-0.8,2-2.1,2.3-3.5c0.2-1.4-0.2-2.9-1.1-4c-7.5-9.3-6.8-22.7,1.7-31.1c8.5-8.5,21.8-9.2,31.1-1.7
			c1.1,0.9,2.6,1.3,4,1.1c1.4-0.2,2.7-1.1,3.5-2.3c9.2-14.2,15.6-29.7,19.1-46.1c0.3-1.4,0-2.9-0.9-4.1
			C270.7,297.5,269.4,296.7,267.9,296.5z M247.4,338.9c-12.9-7.2-29.2-5.2-40,5.6c-10.8,10.8-12.8,27.1-5.6,40
			c-10.4,6.2-21.6,10.8-33.2,13.8c-4-14.2-17-24.4-32.3-24.4S108,384.1,104,398.3c-11.7-3-22.8-7.6-33.2-13.8
			c7.2-12.9,5.2-29.2-5.6-40c-10.8-10.8-27.1-12.8-40-5.6c-6.2-10.4-10.8-21.6-13.8-33.2c14.2-4,24.4-17,24.4-32.3
			s-10.1-28.3-24.4-32.3c3-11.7,7.6-22.8,13.8-33.2c12.9,7.2,29.2,5.2,40-5.6c10.8-10.8,12.8-27.1,5.6-40
			c10.4-6.2,21.5-10.8,33.2-13.8c4,14.2,17,24.4,32.3,24.4s28.3-10.1,32.3-24.4c11.7,3,22.8,7.6,33.2,13.8
			c-7.2,12.9-5.2,29.2,5.6,40c10.8,10.8,27.1,12.8,40,5.6c6.2,10.4,10.8,21.6,13.8,33.2c-14.2,4-24.3,17-24.3,32.3
			s10.1,28.3,24.3,32.3C258.2,317.3,253.6,328.4,247.4,338.9z"/>
	</g>
</g>
</svg>
