<?xml version="1.0" encoding="utf-8"?>
<!-- Generator: Adobe Illustrator 23.0.3, SVG Export Plug-In . SVG Version: 6.00 Build 0)  -->
<svg version="1.1" xmlns="http://www.w3.org/2000/svg" xmlns:xlink="http://www.w3.org/1999/xlink" x="0px" y="0px"
	 viewBox="0 0 750 500" style="enable-background:new 0 0 750 500;" xml:space="preserve">
<style type="text/css">
	.st0{fill:#FFFFFF;}
	.st1{fill:#E0F4FC;}
	.st2{fill:#00B3F9;}
	.st3{fill:#0D5375;}
	.st4{fill:#65B8D1;}
	.st5{opacity:0.25;}
	.st6{fill:#8BDEF2;}
	.st7{fill:none;stroke:#65B8D1;stroke-width:1.2855;stroke-miterlimit:10;}
	.st8{fill:#A5CAD3;}
	.st9{fill:#CAE7EF;}
	.st10{opacity:0.55;fill:#FFFFFF;}
	.st11{fill:#008EBA;}
	.st12{fill:#02374C;}
	.st13{fill:none;stroke:#F9F9F9;stroke-width:1.2855;stroke-linecap:round;stroke-miterlimit:10;}
	.st14{fill:none;stroke:#F9F9F9;stroke-width:1.2855;stroke-linecap:round;stroke-miterlimit:10;stroke-dasharray:4.4482,4.4482;}
	.st15{fill:url(#SVGID_1_);}
	.st16{fill:#0C1C28;}
	.st17{fill:url(#SVGID_2_);}
	.st18{fill:#07171C;}
	.st19{fill:url(#SVGID_3_);}
	.st20{opacity:0.25;fill:#FFFFFF;}
	.st21{opacity:0.25;fill:none;stroke:#F9F9F9;stroke-width:1.2855;stroke-miterlimit:10;}
	.st22{fill:none;stroke:#F9F9F9;stroke-width:1.2855;stroke-linecap:round;stroke-miterlimit:10;stroke-dasharray:4.5174,4.5174;}
	.st23{fill:#1C1C1C;}
	.st24{fill:none;}
	.st25{fill:url(#SVGID_4_);}
	.st26{fill:url(#SVGID_5_);}
	.st27{fill:#3A1508;}
	.st28{fill:#11191E;}
	.st29{fill:#1C262D;}
	.st30{fill:#ADD0D8;}
	.st31{opacity:0.25;fill:none;stroke:#000000;stroke-width:1.2855;stroke-linecap:round;stroke-miterlimit:10;}
	.st32{fill:#55C6FF;}
	.st33{fill:#003C54;}
	.st34{fill:#16374C;}
</style>
<g id="BACKGROUND">
	<rect class="st0" width="750" height="500"/>
</g>
<g id="OBJECTS">
	<g>
		<g>
			<path class="st1" d="M564.5,332.9c0,5.6,2.3,10.7,6,14.3c3.7,3.7,8.8,5.9,14.5,5.9h63.7c13.8,0,25.4,8.7,29.8,20.8
				c1.2,3.3,1.8,6.8,1.8,10.4c0,8.6-3.5,16.4-9.2,22.1c-5.7,5.6-13.6,9.1-22.3,9.1h-102c-2.5,0-4.7,1.1-6.1,2.9
				c-1.1,1.4-1.8,3.1-1.8,5c0,2.2,0.9,4.1,2.3,5.6c1.4,1.4,3.4,2.3,5.6,2.3h45.9c0.2,0,0.4,0,0.6,0c2.5,0.1,4.9,0.4,7.2,1.1
				c0.1,0,0.3,0.1,0.4,0.1c11.5,3.4,19.8,14,19.8,26.4c0,4-0.9,7.8-2.4,11.2c-1.4,3.1-3.4,5.9-5.8,8.3c-5.1,5-12.1,8.1-19.8,8.1
				h-449c-9.2,0-17.3-4.6-22.1-11.5c-2.9-4.2-4.6-9.3-4.6-14.9c0-7.3,3-13.9,7.8-18.7c0.3-0.3,0.6-0.6,0.9-0.9
				c4.7-4.3,11-6.9,18-6.9h9.2c6.1,0,11.1-4.9,11.1-10.9c0-1.6-0.3-3-0.9-4.4c-0.6-1.3-1.3-2.4-2.3-3.3c-2-2-4.8-3.2-7.8-3.2H65.1
				c-14.1,0-25.7-10.6-27.1-24.2c-0.1-0.9-0.1-1.8-0.1-2.7c0-7.4,3.1-14.2,8-19c4.9-4.9,11.7-7.9,19.3-7.9h38.5
				c9.9,0,17.9-7.9,17.9-17.7c0-4.9-2-9.3-5.3-12.5c-3.2-3.2-7.7-5.2-12.7-5.2H47.7c-18.1,0-32.7-14.5-32.7-32.3
				c0-8.9,3.7-17,9.6-22.8c5.9-5.8,14.1-9.5,23.1-9.5h42.4c15.8,0,28.7-12.7,28.7-28.4v-110c0-8.6,7.1-15.6,15.8-15.6
				c4.4,0,8.3-1.7,11.1-4.6c2.9-2.8,4.6-6.7,4.6-11V59.6c0-28.6,23.5-51.8,52.4-51.8h339.8c14.6,0,26.3,11.7,26.3,26
				c0,7.2-2.9,13.7-7.7,18.4c-4.8,4.7-11.4,7.6-18.6,7.6h-28.3c-7.3,0-13.2,5.8-13.2,13c0,3.6,1.5,6.9,3.9,9.2
				c2.4,2.4,5.7,3.8,9.3,3.8h124.5c25.3,0,45.8,20.3,45.8,45.3c0,12.5-5.1,23.8-13.4,32c-8.3,8.2-19.7,13.3-32.4,13.3
				c-10.8,0-20.6,4.3-27.7,11.3c-4.3,4.2-7.5,9.4-9.5,15.2c-1.3,3.8-2,7.9-2,12.2v0.8c0,21.4,17.5,38.7,39.1,38.7H651
				c16.2,0,29.3,13,29.3,29c0,0.8,0,1.5-0.1,2.3c-0.6,7.1-3.7,13.5-8.5,18.2c-5.3,5.2-12.6,8.5-20.7,8.5h-66
				C573.7,312.7,564.5,321.7,564.5,332.9z"/>
			<ellipse class="st1" cx="94.8" cy="72.4" rx="17.8" ry="17.6"/>
			<ellipse class="st1" cx="711.8" cy="380.7" rx="17.8" ry="17.6"/>
		</g>
		<g>
			<g>
				<path class="st2" d="M410.1,376.1c-0.3,0-0.5,0-0.8-0.1c-0.8-0.3-1.4-1.1-1.4-2v-57c0-1.2,1-2.1,2.1-2.1h51.2
					c0.8,0,1.6,0.5,2,1.3c0.3,0.8,0.2,1.7-0.4,2.3l-51.2,57C411.3,375.8,410.7,376.1,410.1,376.1z M412.3,319v49.3l44.2-49.3H412.3z
					"/>
			</g>
			<path class="st3" d="M469.2,321.2h-84c-2.4,0-4.3-1.9-4.3-4.2l0,0c0-2.3,1.9-4.2,4.3-4.2h84c2.4,0,4.3,1.9,4.3,4.2l0,0
				C473.5,319.3,471.6,321.2,469.2,321.2z"/>
			<path class="st4" d="M568.8,202.2c0,0-16.3,107.9-16.7,109c-0.4,1.1-44.4,58.7-44.4,58.7l-28-16.6l-10.5-101.8l21.7-46.2l1.4-3
				h15.3c0,0,5.1-11.2,20.2-11.2c2.6,0,4.8,0.3,6.6,0.9c0,0,0.1,0,0.1,0c0,0,0.1,0,0.1,0c8.5,2.7,8.8,10.3,8.8,10.3H568.8z"/>
			<path class="st5" d="M568.8,202.2c0,0-16.3,107.9-16.7,109c-0.4,1.1-44.4,58.7-44.4,58.7l-28-16.6l-10.5-101.8l21.7-46.2
				c3.7,0.3,9.6,3.5,16.7,16.6c13,23.5,19.7,28.1,28.9,27.8c7.2-0.2,11.2-32.8,24.6-47.3H568.8z"/>
			<path class="st6" d="M554.3,202.2h-10.8c0,0-0.3-7.6-8.8-10.3c1.8,0.5,16.3,4.7,17.7,6.8C552.9,199.4,553.6,200.6,554.3,202.2z"
				/>
			<path class="st3" d="M416.9,374c0,3.7-3,6.7-6.8,6.7c-3.7,0-6.8-3-6.8-6.7c0-3.7,3-6.7,6.8-6.7
				C413.8,367.3,416.9,370.3,416.9,374z"/>
		</g>
		<g>
			<g>
				<path class="st7" d="M171.7,131.5l8.5-21.8c0.6-1.5,2.7-1.5,3.3-0.1l9.7,23.1"/>
				<ellipse class="st8" cx="181.8" cy="162.7" rx="34" ry="33.6"/>
				<ellipse class="st9" cx="184.3" cy="162.7" rx="34" ry="33.6"/>
				<ellipse class="st10" cx="184.3" cy="162.7" rx="22.6" ry="22.4"/>
			</g>
			<g>
				<path class="st7" d="M301.4,58.7l8.5-21.8c0.6-1.5,2.7-1.5,3.3-0.1l9.7,23.1"/>
				<ellipse class="st9" cx="311.5" cy="89.9" rx="34" ry="33.6"/>
				<ellipse class="st0" cx="313.9" cy="89.9" rx="34" ry="33.6"/>
				<ellipse class="st9" cx="313.9" cy="89.9" rx="22.6" ry="22.4"/>
			</g>
		</g>
		<g>
			<polygon class="st11" points="392.7,486.6 384.7,486.6 333.3,291.6 341.3,291.6 			"/>
			<polygon class="st5" points="392.7,486.6 388.3,486.6 336.9,291.6 341.3,291.6 			"/>
		</g>
		<g>
			<path class="st3" d="M423.4,337.5l-4.4,11.3c0,0-4.8,7.2-11,15.2c-0.1,0.1-0.1,0.2-0.2,0.3c0,0-0.1,0.1-0.1,0.1
				c-5.9,7.4-13,15.3-18.6,18.3c-4.9,2.7-15,17-25.2,32.9c-14.3,22.3-28.8,47.5-29.5,47.5c-1.2,0-18.8-9.7-19.2-11.7
				c-0.4-2,33.1-71.2,43.3-87.9c0.3-0.5,0.6-1,0.9-1.4c3.6-5.5,10.8-11.4,18.1-16.5c3-2.1,6-4,8.8-5.7c7.4-4.6,13.3-7.6,13.3-7.6
				l21,4.6L423.4,337.5z"/>
			<path class="st12" d="M383.2,351.8c-4.5,2.8-15.3,13.9-18.6,14.5c-2,0.4-4.6-1.5-6.2-2.9c0.3-0.5,0.6-1,0.9-1.4
				c5.1-7.8,17.3-16.3,26.9-22.2C389.5,344.6,386.9,350.3,383.2,351.8z"/>
			<path class="st5" d="M420.5,336.9c-2.3,6.4-10.5,24.2-12.6,27.1c-0.1,0.1-0.1,0.2-0.2,0.3c0,0-0.1,0.1-0.1,0.1
				c-5.9,7.4-13,15.3-18.6,18.3c-4.9,2.7-15,17-25.2,32.9c8.2-21.2,12.1-55,13.6-70c3-2.1,6-4,8.8-5.7c7.4-4.6,13.3-7.6,13.3-7.6
				L420.5,336.9z"/>
			<g class="st5">
				<g>
					<path class="st13" d="M392.2,358.1c0,0-0.6,0.4-1.8,1.3"/>
					<path class="st14" d="M387.1,362.4c-4.6,4.4-11.9,12.6-20.4,27c-12,20-26.7,51.8-31.9,62.9"/>
					<path class="st13" d="M333.8,454.4c-0.6,1.3-0.9,2-0.9,2"/>
				</g>
			</g>
			<path class="st3" d="M505.4,361.7c-5.6,9.1-16.6,6.7-33.1,4.4c-16.5-2.2-42.8-0.4-46.7,1c-2.3,0.8-9.4,36-15.4,64.1
				c-3.2,15-6.1,28-7.7,32.7v0c-0.4,1.1-0.7,1.7-1,1.8c-3.3,1.2-13.7,3.4-21.2-3.2c-1.2-20.6-0.5-69.2,4.5-100
				c1.7-10.3,3.8-18.6,6.6-23.2c2.8-4.6,8.7-8.1,16.1-10.7c0,0,0.1,0,0.1,0c0,0,0.1,0,0.1,0c0.2-0.1,0.4-0.2,0.6-0.2
				c8.5-2.9,18.7-4.7,28-5.9c4.4,6.3,18.1,3.8,28.6,5.4c2.4,0.4,5.5,0.6,8.8,0.7c12.1,0.3,28-1.2,31.8-4.6
				C505.8,324.7,517,343.2,505.4,361.7z"/>
			<path class="st5" d="M505.4,361.7c-5.6,9.1-16.6,6.7-33.1,4.4c-16.5-2.2-42.8-0.4-46.7,1c-2.3,0.8-9.4,36-15.4,64.1
				c2.3-26.6,6.4-73.4,7.6-73.2c1.6,0.2,7.6,6.2,7.6,6.2s50.7-6.1,44.8-13.8c-5.9-7.7-29.1-20.9-39.9-23.3
				c-9.9-2.2-21.1,1.1-22.7,1.6c0.2-0.1,0.4-0.2,0.6-0.2c8.5-2.9,18.7-4.7,28-5.9c4.4,6.3,18.1,3.8,28.6,5.4
				c2.4,0.4,5.5,0.6,8.8,0.7c12.1,0.3,28-1.2,31.8-4.6C505.8,324.7,517,343.2,505.4,361.7z"/>
			<linearGradient id="SVGID_1_" gradientUnits="userSpaceOnUse" x1="301.6688" y1="250.6286" x2="414.5204" y2="261.0551">
				<stop  offset="0" style="stop-color:#FFA894"/>
				<stop  offset="1" style="stop-color:#FC7B65"/>
			</linearGradient>
			<path class="st15" d="M419,266.2l-12.4,1.4c0,0-12.2-0.3-26.7-0.8c-18.8-0.6-41.5-1.3-45.9-1.6c-7.8-0.6-22.3-3.8-21.2-6.1
				c1-2.2,10.2-3.2,14.5-3.4c4.3-0.2,11.8,3.4,14.7,3.4c2.5,0,33.8-1.2,43.9-1.8c1.6-0.1,2.6-0.2,3-0.2c2.8-0.4,14.6-8.7,14.6-8.7
				l8.9,2.4L419,266.2z"/>
			<path class="st5" d="M419,266.2l-12.4,1.4c0,0-12.2-0.3-26.7-0.8l6.1-9.5c1.6-0.1,2.6-0.2,3-0.2c2.8-0.4,14.6-8.7,14.6-8.7
				l8.9,2.4L419,266.2z"/>
			<path class="st16" d="M506.2,323.1c-0.1,0.4-0.4,0.7-0.7,1v0c-3.8,3.5-19.7,5-31.8,4.6c-3.3-0.1-6.4-0.3-8.8-0.7
				c-10.5-1.6-24.1,0.9-28.6-5.4c-0.6-0.9-1.1-1.9-1.3-3.2c-1.7-9.5,4.8-22.6,4-37.6c-0.1-1.3-0.2-2.7-0.4-4
				c-0.2-1.5-0.4-2.9-0.6-4.4c-0.1-0.9-0.3-1.8-0.4-2.6c-0.6-4.2-1.1-8.3-1.6-12.3c-7.3,3.6-17.1,8.6-19.3,8.3
				c-0.5-0.1-1.1-0.4-1.8-1.1c-4.5-3.7-12.6-16.1-10.9-17.6c2-1.7,40-28.8,40-28.8c3.2-2.4,7.2-4.7,11.8-6.6c1.7-0.7,3.6-1.4,5.5-2
				h0c2.2-0.7,4.6-1.3,7.1-1.8c0,0,1.3,0.2,3.5,0.7l0.1,0c1.5,0.3,3.2,0.7,5.2,1.2l0.2,0.1c7.7,2,18.1,5.3,21,9.9
				c0.6,1,1.2,3,1.7,5.6c3.3,17,4,62.1,4.7,69.7C505.4,304.9,508,317.8,506.2,323.1z"/>
			<path class="st5" d="M506.2,323.1c-1.5,4.2-19.3,6-32.6,5.7c10-2.6,16.3-7.3,16.9-12c0.9-7.7-6.4-10.3-21-13.5
				c-9.7-2.2-22.9-13.8-30.6-21.4c-0.1-1.3-0.2-2.7-0.4-4c-0.2-1.5-0.4-2.9-0.6-4.4c20.4-10,58.4-51.7,58.4-51.7l3.6,4.7
				c3.3,17,4,62.1,4.7,69.7C505.4,304.9,508,317.8,506.2,323.1z"/>
			<path class="st5" d="M439.8,263v7.9c0,0-0.9,0-2.3-0.1c-0.6-4.2-1.1-8.3-1.6-12.3c-7.3,3.6-17.1,8.6-19.3,8.3
				c-0.5-0.1-1.1-0.4-1.8-1.1c11.1-6.6,20.6-31.8,25-33.8C436.9,237.2,439.8,263,439.8,263z"/>
			<path class="st16" d="M507.8,246.1c0.1,7.6-4.2,18-7.7,23.9c-1.7,2.8-3.1,4.6-3.7,4.6c-0.3,0-1-0.3-1.9-0.7
				c-5.2-2.3-18.8-10.1-21.2-17.2c0.7-1.2,1.4-2.4,2.1-3.6c12.1-20.4,21.5-32.3,22.3-32.9C497.7,220.1,507.5,224.9,507.8,246.1z"/>
			<linearGradient id="SVGID_2_" gradientUnits="userSpaceOnUse" x1="376.455" y1="266.8344" x2="489.1934" y2="277.2505">
				<stop  offset="0" style="stop-color:#FFA894"/>
				<stop  offset="1" style="stop-color:#FC7B65"/>
			</linearGradient>
			<path class="st17" d="M494.5,273.8c-2.4,3-6.8,8.4-11.5,13.2c-5.2,5.4-10.6,9.9-13.6,9.3c-6.8-1.4-53.5-35.3-57.9-36
				s-22.5,0.9-22.4-0.3c0.1-1.2,9.9-11.6,14.6-11.6c4.7,0,15.6,5.7,20.4,6.2c4.7,0.5,42,14.2,42,14.2l4.2-7.1l3-5.2
				C475.7,263.7,489.3,271.5,494.5,273.8z"/>
			<path class="st5" d="M477.2,210.9c-3.3,9.1-13.3,15.9-19.3,13.3c-4.9-2.1-3.3-8.6-2.3-11.5c1.7-0.7,3.6-1.4,5.5-2h0l10.6-1.2
				l0.1,0l5.2,1.2L477.2,210.9z"/>
			<path class="st18" d="M445.3,198l-4.5,0.8l-0.6,0.1c-3.6,0.6-7.3-3.5-8.3-9.2c-1-5.7,1-10.8,4.6-11.5l5.1-0.9
				c-0.6,0.1-1.2,0.4-1.7,0.7c-0.2,0.2-0.5,0.3-0.7,0.5c-0.9,0.9-1.6,2.1-2,3.6c-0.5,1.9-0.7,4.2-0.2,6.6c0.4,2.4,1.3,4.5,2.5,6.1
				c0.9,1.3,2,2.2,3.1,2.7C443.5,198,444.4,198.1,445.3,198z"/>
			<path class="st5" d="M445.3,198l-4.5,0.8c-2.9-0.8-5.5-4.4-6.4-9.1c-1-5.7,1-10.8,4.6-11.5l0.8-0.1c-0.2,0.2-0.5,0.3-0.7,0.5
				c-0.9,0.9-1.6,2.1-2,3.6c-0.5,1.9-0.7,4.2-0.2,6.6c0.4,2.4,1.3,4.5,2.5,6.1c0.9,1.3,2,2.2,3.1,2.7
				C443.5,198,444.4,198.1,445.3,198z"/>
			<path class="st16" d="M480.6,172.7c-0.5,9.4-4.1,20.3-10.9,27.7c0,0,0,0,0,0l-6.7-22.7c0,0-7.2,3-15.7,6.3
				c-4.2,1.6-7.7,2.9-11.1,3.2c-3.4,0.3-6.7-0.4-10.7-2.7c-5.5-3.2-6.6-10.6-3.8-15c1.3-2,3.3-3.4,6.2-3.4
				c1.8-13.9,13.1-16.8,20-9.8c0.1,0.1,0.2,0.2,0.3,0.2c0,0,0,0,0,0c2.4,1.1,11.9-1,11.9-1s2.9-3.5,9.3-2.4c1.5,0.3,3.1,0.8,5,1.6
				C479,156.9,481.1,164.2,480.6,172.7z"/>
			<linearGradient id="SVGID_3_" gradientUnits="userSpaceOnUse" x1="448.3785" y1="217.4789" x2="461.302" y2="178.1028">
				<stop  offset="0" style="stop-color:#FFA894"/>
				<stop  offset="1" style="stop-color:#FC7B65"/>
			</linearGradient>
			<path class="st19" d="M472.7,210.5c-2.8,9.8-12.2,10.9-13.5,10.1c-0.6-0.4-1.9-3-3-5.7c-1.1-2.7-2.2-5.4-2.3-5.9c0,0,0-0.1,0-0.1
				s-0.1,0.1-0.2,0.1c-0.2,0.1-0.7,0.1-1.4,0c-1-0.1-2.4-0.6-4.4-1.9c-7.3-4.5-10.5-15.1-11.4-19.1c-0.1-0.3-0.1-0.6-0.2-0.9
				c3.4-0.3,6.8-1.6,11.1-3.2c8.5-3.2,15.7-6.3,15.7-6.3l5.2,17.7l1.5,5c0,0,0,0,0,0C470.4,203.4,471.3,207.2,472.7,210.5z"/>
			<path class="st5" d="M480.6,172.7c-0.5,9.4-4.1,20.3-10.9,27.7c0,0,0,0,0,0l-6.7-22.7c0,0-7.2,3-15.7,6.3
				c-4.2,1.6-7.7,2.9-11.1,3.2c-3.4,0.3-6.7-0.4-10.7-2.7c-5.5-3.2-6.6-10.6-3.8-15c-0.4,7.4,5.3,10.8,5.3,10.8s-1.5-4.4,0.6-7.6
				c0.1,3.8,2.4,7.6,10.8,8.4c8.5,0.9,18.3-5.3,16.5-13.3c-1.7-7.7-6.4-11.1-6.8-11.4c2.4,1.1,11.9-1,11.9-1s2.9-3.5,9.3-2.4
				c-3,3.9,6,15.2,10.1,18.3C479.9,171.8,480.3,172.2,480.6,172.7z"/>
			<path class="st5" d="M456.3,214.9c-1.1-2.7-2.2-5.4-2.3-5.9c2-0.3,5.4-1.4,7.9-6C463,205.5,458.1,212.4,456.3,214.9z"/>
			<path class="st5" d="M468.2,195.4c-6.7-4.1-13.1-10.2-22.9-8.2c-4,0.8-6.8,1-8.9,0.9c-0.1-0.3-0.1-0.6-0.2-0.9
				c3.4-0.3,6.8-1.6,11.1-3.2c8.5-3.2,15.7-6.3,15.7-6.3L468.2,195.4z"/>
			<path class="st2" d="M468.8,170.6l-5.7,2.1c0,0-0.1-0.4-0.2-1.1c-0.7-3.9-3.9-17-13.7-14.9c1.4-3,15.3-5.4,19,10.5
				C468.5,168.3,468.7,169.4,468.8,170.6z"/>
			<path class="st2" d="M474.6,190.9c-0.9,0.2-1.8,0-2.7-0.4c-1.1-0.5-2.2-1.5-3.1-2.7c-1.2-1.6-2.1-3.7-2.5-6.1
				c-0.4-2.4-0.3-4.7,0.2-6.6c0.4-1.5,1.1-2.7,2-3.6c0.7-0.7,1.5-1.1,2.4-1.3c3.6-0.6,7.3,3.5,8.3,9.2
				C480.2,185.2,478.1,190.3,474.6,190.9z"/>
			<path class="st18" d="M476.9,186.2c-0.4,0.1-0.8,0-1.2-0.1c-0.1,0-0.2-0.1-0.4-0.1c-0.4-0.2-0.7-0.4-1.1-0.7
				c-0.3-0.2-0.5-0.5-0.7-0.8c-0.7-0.9-1.2-2.2-1.5-3.6c-0.2-1.4-0.2-2.7,0.1-3.9c0.1-0.4,0.2-0.7,0.4-1.1c0.2-0.4,0.5-0.8,0.7-1
				c0.1-0.1,0.2-0.1,0.2-0.2c0.3-0.3,0.7-0.5,1.2-0.6c2.1-0.4,4.3,2.1,4.8,5.4C480.2,182.8,479,185.8,476.9,186.2z"/>
			<path class="st5" d="M476.5,186.3c-0.5,1-1.2,1.6-2.1,1.8c-0.4,0.1-0.8,0-1.2-0.1c-0.1,0-0.2-0.1-0.4-0.1
				c-0.4-0.2-0.7-0.4-1.1-0.7c-0.3-0.2-0.5-0.5-0.7-0.8c-0.7-0.9-1.2-2.2-1.5-3.6c-0.2-1.3-0.2-2.6,0.1-3.7c0,0.7,0,1.5,0.1,2.3
				c0.2,1.4,0.8,2.6,1.5,3.6c0.5,0.7,1.2,1.3,1.8,1.6c0.5,0.2,1,0.3,1.6,0.2L476.5,186.3z"/>
			<path class="st18" d="M474.6,190.9l-5.1,0.9c-3.6,0.6-7.3-3.5-8.3-9.2c-1-5.7,1-10.8,4.6-11.5l5.1-0.9c-0.9,0.2-1.7,0.6-2.4,1.3
				c-0.9,0.9-1.6,2.1-2,3.6c-0.5,1.9-0.7,4.2-0.2,6.6c0.4,2.4,1.3,4.5,2.5,6.1c0.9,1.3,2,2.2,3.1,2.7
				C472.7,190.9,473.7,191.1,474.6,190.9z"/>
			<path class="st5" d="M468.8,170.6l-5.7,2.1c0,0-0.1-0.4-0.2-1.1c1.4-2.5,3.3-4.1,5.3-4.4C468.5,168.3,468.7,169.4,468.8,170.6z"
				/>
			<path class="st11" d="M476.9,186.2l-0.5,0.1l-1.9,0.4c-0.5,0.1-1.1,0-1.6-0.2c-0.7-0.3-1.3-0.9-1.8-1.6c-0.7-0.9-1.2-2.2-1.5-3.6
				c-0.1-0.8-0.2-1.5-0.1-2.3c0,0,0,0,0,0c0-0.6,0.1-1.1,0.3-1.6c0.2-0.9,0.6-1.6,1.2-2.1c0.4-0.4,0.9-0.7,1.4-0.8l2.4-0.5
				c-0.4,0.1-0.8,0.3-1.2,0.6c-0.1,0.1-0.2,0.1-0.2,0.2c-0.3,0.3-0.5,0.6-0.7,1c0,0,0,0,0,0c-0.2,0.3-0.3,0.7-0.4,1
				c-0.3,1.1-0.4,2.5-0.1,3.9c0.2,1.4,0.8,2.6,1.5,3.6c0.2,0.3,0.5,0.6,0.7,0.8c0.3,0.3,0.7,0.6,1.1,0.7c0.1,0.1,0.2,0.1,0.4,0.1
				c0.2,0.1,0.5,0.1,0.8,0.1C476.6,186.2,476.8,186.2,476.9,186.2z"/>
			<path class="st20" d="M500.1,269.9c-1.7,2.8-3.1,4.6-3.7,4.6c-0.3,0-1-0.3-1.9-0.7c-5.2-2.3-18.8-10.1-21.2-17.2
				c0.7-1.2,1.4-2.4,2.1-3.6C479.2,256.5,491.1,267.1,500.1,269.9z"/>
			<path class="st5" d="M494.5,273.8c-2.4,3-6.8,8.4-11.5,13.2c-8.1-7.7-11.4-18.4-12.8-25.2l3-5.2
				C475.7,263.7,489.3,271.5,494.5,273.8z"/>
			<path class="st12" d="M402,341.4c-6.5,6.3-9.6,23-11.2,22.9c-1-0.1-4-0.9-6-1.5c1.7-10.3,3.8-18.6,6.6-23.2
				c2.9-4.8,9.2-8.4,17-11c2,2.8,3.8,5.7,4,6.4C412.6,336.2,408.8,334.9,402,341.4z"/>
			<path class="st21" d="M482.3,334c0,0-2.2,8.5,8.2,12.4"/>
			<g class="st5">
				<g>
					<path class="st13" d="M479.7,339.9c0,0-0.8,0.1-2.2,0.2"/>
					<path class="st22" d="M472.9,340.5c-15,1.6-50.5,6.7-55.8,18.9c-5.8,13.3-15.5,80.2-18,98.2"/>
					<path class="st13" d="M398.8,459.8c-0.2,1.4-0.3,2.2-0.3,2.2"/>
				</g>
			</g>
			<path class="st23" d="M404.3,486.6h-50.3c0-1.6,0.5-3,1.3-4.3c2.9-4.5,9.9-7.6,15.3-9.6c2.7-1,4.9-1.8,6.1-2.4
				c4.1-2.1,3.6-7.6,3.6-7.6c1.4,1.3,3,2.2,4.6,2.9c0.4,0.2,0.9,0.4,1.3,0.5c0,0,0,0,0,0c6.3,2.2,12.9,0.7,15.4-0.2
				c0.2-0.1,0.6-0.7,1-1.8l0.7,8.5l0.8,9.7L404.3,486.6z"/>
			<line class="st24" x1="402.5" y1="464.1" x2="402.5" y2="464.1"/>
			<path class="st23" d="M334.3,463.1c0,0-1.4,3.7-3.4,8.2c-1.5,3.5-3.4,7.6-5.1,10.6c-1.5,2.8-3,4.7-3.9,4.7
				c-3.2,0-37.2-19.2-40.6-28.5c1.2-1.1,2.6-1.8,3.9-2.2c4.7-1.5,10.3,0,16.4,0.4c1.4,0.1,2.8,0.2,4.3,0.1c9.8-0.4,9-5,9-5
				c0.1,0.7,2.2,2.2,4.9,3.9c1.1,0.7,2.2,1.4,3.4,2.1C328.3,460.3,333.7,463.1,334.3,463.1z"/>
			<path class="st5" d="M384.9,465.6c-1.5,7.9-6.9,11.3-9.6,10.9c-2.3-0.3-4-2.8-4.6-3.9c2.7-1,4.9-1.8,6.1-2.4
				c4.1-2.1,3.6-7.6,3.6-7.6C381.8,463.9,383.3,464.9,384.9,465.6z"/>
			<path class="st5" d="M320,455.3c-4.1,6.5-13.1,7.5-15.4,6.8c-1.8-0.5-2.5-3.8-2.8-5.8c1.4,0.1,2.8,0.2,4.3,0.1c9.8-0.4,9-5,9-5
				C315.3,452,317.3,453.5,320,455.3z"/>
			<path class="st5" d="M325.9,481.8c-1.5,2.8-3,4.7-3.9,4.7c-3.2,0-37.2-19.2-40.6-28.5c1.2-1.1,2.6-1.8,3.9-2.2
				C291.1,461.2,311,478.8,325.9,481.8z"/>
			<path class="st5" d="M334.3,463.1c0,0-1.4,3.7-3.4,8.2l-7.6-13.9C328.3,460.3,333.7,463.1,334.3,463.1z"/>
			<path class="st5" d="M403.2,472.5c-7.5-0.1-16.6-6.2-17-6.5c6.3,2.2,12.9,0.7,15.4-0.2c0.2-0.1,0.6-0.7,1-1.8L403.2,472.5z"/>
		</g>
		<g>
			<linearGradient id="SVGID_4_" gradientUnits="userSpaceOnUse" x1="311.1587" y1="235.3047" x2="309.3407" y2="280.1491">
				<stop  offset="0" style="stop-color:#FFB000"/>
				<stop  offset="1" style="stop-color:#FF6700"/>
			</linearGradient>
			<path class="st25" d="M295.9,268.9c0,0,1.5-5.8,7.8-7.7c6.3-2,15.9,2.4,18.6,3.3c2.8,0.9,0.7,4.4,0.7,4.4L295.9,268.9z"/>
			<linearGradient id="SVGID_5_" gradientUnits="userSpaceOnUse" x1="343.7295" y1="254.245" x2="340.1939" y2="311.9299">
				<stop  offset="0" style="stop-color:#4C1710"/>
				<stop  offset="1" style="stop-color:#723328"/>
			</linearGradient>
			<polygon class="st26" points="309.2,268.9 312.8,262.6 376.8,262.6 374.4,268.9 			"/>
			<polygon class="st27" points="376.8,262.6 415.9,264.9 417.2,268.9 374.4,268.9 			"/>
		</g>
		<g>
			<path class="st3" d="M487.6,486.6h-33.1c-2.4,0-4.3-2-4.1-4.5c0.2-2.1,2.1-3.7,4.3-3.7h0.1c6.6,0,12-5.3,12-11.9v-82.2h8.6v82.2
				c0,6.6,5.4,11.9,12,11.9h0.1c2.2,0,4.1,1.6,4.3,3.7C492,484.5,490.1,486.6,487.6,486.6z"/>
			<path class="st5" d="M487.6,486.6H461c-2.4,0-4.3-2-4.1-4.5c0.2-2.1,2.1-3.7,4.3-3.7h0.1c6.6,0,12-5.3,12-11.9v-82.2h2.1v82.2
				c0,6.6,5.4,11.9,12,11.9h0.1c2.2,0,4.1,1.6,4.3,3.7C492,484.5,490.1,486.6,487.6,486.6z"/>
			<path class="st6" d="M585.1,213.5L585.1,213.5l-57.8,170.8H425c-3.1,0-5.5-2.8-5-5.8l1.7-10.1c0.4-2.4,2.5-4.2,5-4.2h73.1
				c3.3,0,6.3-2.1,7.4-5.2l55.3-152.6c1.2-3.3,4.8-5.2,8.3-4.2l9.8,2.6C584.2,205.8,586.4,209.8,585.1,213.5z"/>
			<path class="st5" d="M585.1,213.6l-57.7,170.8h-96.9l1-5.8c0.4-2.4,2.5-4.2,5-4.2h73.1c3.3,0,6.3-2.1,7.4-5.2l55.3-152.6
				c1.2-3.3,4.8-5.2,8.3-4.2L585.1,213.6z"/>
			<g>
				<path class="st2" d="M475.4,376.1c-0.3,0-0.5,0-0.8-0.1c-0.8-0.3-1.4-1.1-1.4-2v-57c0-1.2,1-2.1,2.1-2.1h51.2
					c0.8,0,1.6,0.5,2,1.3c0.3,0.8,0.2,1.7-0.4,2.3l-51.2,57C476.6,375.8,476,376.1,475.4,376.1z M477.5,319v49.3l44.2-49.3H477.5z"
					/>
			</g>
			<path class="st3" d="M482.2,374c0,3.7-3,6.7-6.8,6.7c-3.7,0-6.8-3-6.8-6.7c0-3.7,3-6.7,6.8-6.7
				C479.1,367.3,482.2,370.3,482.2,374z"/>
			<path class="st3" d="M538.4,321.2h-87.9c-2.4,0-4.3-1.9-4.3-4.2l0,0c0-2.3,1.9-4.2,4.3-4.2h87.9c2.4,0,4.3,1.9,4.3,4.2l0,0
				C542.7,319.3,540.8,321.2,538.4,321.2z"/>
		</g>
		<g>
			<g>
				<path class="st28" d="M248.5,291.6h-73.2c-1.1,0-2.2-0.2-3.2-0.5c-4.8-1.4-8.3-5.7-8.3-10.9c0-3.1,1.3-6,3.4-8
					c2.1-2.1,5-3.3,8.1-3.3h73.2c-3.2,0-6,1.3-8.1,3.3c-1,1-1.8,2.2-2.4,3.5c-0.6,1.4-1,2.9-1,4.6
					C237,286.5,242.2,291.6,248.5,291.6z"/>
				<path class="st29" d="M443.5,280.2c0,3.1-1.3,6-3.4,8c-2.1,2-5,3.3-8.1,3.3H248.5c-6.3,0-11.5-5.1-11.5-11.3
					c0-1.6,0.3-3.2,1-4.6c0.6-1.3,1.4-2.5,2.4-3.5c2.1-2.1,5-3.3,8.1-3.3H432C438.4,268.9,443.5,274,443.5,280.2z"/>
				<path class="st5" d="M414.7,287c0,1.6-0.4,3.2-1.1,4.6H175.3c-1.1,0-2.2-0.2-3.2-0.5c-0.6-1.3-0.9-2.7-0.9-4.1c0-3.1,1.5-6,4-8
					c2.4-2.1,5.8-3.3,9.6-3.3h216.4C408.7,275.7,414.7,280.7,414.7,287z"/>
			</g>
			<g>
				<g>
					<polygon class="st11" points="199.1,291.6 147.7,486.6 139.7,486.6 191.1,291.6 					"/>
					<polygon class="st5" points="199.1,291.6 147.7,486.6 143.3,486.6 194.7,291.6 					"/>
				</g>
				<g>
					<polygon class="st2" points="273.2,291.6 221.8,486.6 213.7,486.6 265.1,291.6 					"/>
					<polygon class="st5" points="273.2,291.6 221.8,486.6 218,486.6 269.4,291.6 					"/>
				</g>
				<g>
					<polygon class="st2" points="466.8,486.6 458.7,486.6 407.3,291.6 415.4,291.6 					"/>
					<polygon class="st5" points="466.8,486.6 463,486.6 411.6,291.6 415.4,291.6 					"/>
				</g>
			</g>
		</g>
		<g>
			<path class="st9" d="M502.7,118.3H387.5c-4,0-7.2-3.2-7.2-7.1l0,0c0-3.9,3.2-7.1,7.2-7.1h115.2c4,0,7.2,3.2,7.2,7.1l0,0
				C509.9,115.1,506.6,118.3,502.7,118.3z"/>
			<path class="st30" d="M406.6,145.3L406.6,145.3c-2.1,0-3.7-1.6-3.7-3.7v-23.3h7.4v23.3C410.4,143.6,408.7,145.3,406.6,145.3z"/>
			<path class="st30" d="M483.7,145.3L483.7,145.3c-2.1,0-3.7-1.6-3.7-3.7v-23.3h7.4v23.3C487.4,143.6,485.8,145.3,483.7,145.3z"/>
			<path class="st30" d="M418.4,64.7h-4.5c-0.9,0-1.6,0.7-1.6,1.6v36.2c0,0.9,0.7,1.6,1.6,1.6h4.5c0.9,0,1.6-0.7,1.6-1.6V66.3
				C420,65.5,419.3,64.7,418.4,64.7z"/>
			<path class="st30" d="M471.5,64.7H467c-0.9,0-1.6,0.7-1.6,1.6v36.2c0,0.9,0.7,1.6,1.6,1.6h4.5c0.9,0,1.6-0.7,1.6-1.6V66.3
				C473.1,65.5,472.4,64.7,471.5,64.7z"/>
			<path class="st0" d="M431.8,64.7h-9.6c-1.2,0-2.2,1-2.2,2.2v35c0,1.2,1,2.2,2.2,2.2h9.6c1.2,0,2.2-1,2.2-2.2v-35
				C434,65.7,433,64.7,431.8,64.7z"/>
			<path class="st4" d="M462.9,67.5l-7.6-2.9c-1.5-0.6-3.2,0.2-3.7,1.6l-12.2,31.4c-0.6,1.5,0.2,3.1,1.7,3.7l7.6,2.9
				c1.5,0.6,3.2-0.2,3.7-1.6l12.2-31.4C465.1,69.7,464.4,68,462.9,67.5z"/>
		</g>
		<g>
			<path class="st6" d="M260.1,437.4l-28.4,11.4l-35-85.1c-3.2-7.7,0.6-16.6,8.4-19.7l0,0c7.8-3.1,16.8,0.6,20,8.3L260.1,437.4z"/>
			<line class="st31" x1="205.1" y1="344" x2="242.1" y2="430.9"/>
			<path class="st4" d="M246.7,448.1l-23.3-8.9c-1.4-0.6-2.2-2.2-1.6-3.6l18.3-46.7c3.1-7.8,11.9-11.7,19.8-8.6l0,0
				c7.9,3,11.8,11.8,8.7,19.6l-18.3,46.7C249.8,447.9,248.2,448.6,246.7,448.1z"/>
			<line class="st31" x1="260" y1="380.2" x2="238" y2="433.8"/>
			<path class="st4" d="M272.1,438l-2.6,14.4l-4.8,26.6c-0.7,4.4-4.5,7.6-8.9,7.6h-35.5c-4.5,0-8.3-3.2-8.9-7.6l-7.4-41
				c-0.9-5.4,3.4-10.3,9-10.3h50.4C268.8,427.6,273,432.5,272.1,438z"/>
			<path class="st5" d="M269.5,452.4l-4.8,26.6c-0.7,4.4-4.5,7.6-8.9,7.6h-25.6l-4.3-23.8c-0.9-5.4,3.4-10.3,9-10.3H269.5z"/>
			<path class="st6" d="M271,440.6h-65.9c-3.1,0-5.6-2.5-5.6-5.6v-8.1c0-3.1,2.5-5.6,5.6-5.6H271c3.1,0,5.6,2.5,5.6,5.6v8.1
				C276.6,438,274.1,440.6,271,440.6z"/>
		</g>
		<g>
			<path class="st6" d="M630.4,415.6h-30.7l-0.1-3.3l-2.3-59.1l-0.5-12.4c-0.3-8.4,6.3-15.4,14.7-15.7c0.2,0,0.4,0,0.6,0
				c8.2,0,15,6.4,15.3,14.6l0.5,13.6l0.3,8.3L629,379l0.8,21.4L630.4,415.6z"/>
			<line class="st31" x1="611.5" y1="325" x2="616.4" y2="415.6"/>
			<path class="st4" d="M655.9,389c0,3.5-1.2,7.1-3.8,9.9l-14.7,16.7h-40.7l2.9-3.3l15.5-17.6L629,379l0,0c5.6-6.3,15.2-7,21.6-1.5
				C654.1,380.5,655.9,384.7,655.9,389z"/>
			<line class="st31" x1="650.6" y1="377.5" x2="616.4" y2="415.6"/>
		</g>
		<g>
			<path class="st6" d="M273.5,268.9h-74.9c-2.2,0-3.9-1.8-3.9-3.9v-86c0-2.2,1.8-3.9,3.9-3.9h74.9c2.2,0,3.9,1.8,3.9,3.9v86
				C277.5,267.1,275.7,268.9,273.5,268.9z"/>
			<path class="st3" d="M208.5,264.1v-84.3c0-0.8,0.6-1.4,1.4-1.4h62.8c0.8,0,1.4,0.6,1.4,1.4v84.3c0,0.8-0.6,1.4-1.4,1.4h-62.8
				C209.1,265.5,208.5,264.9,208.5,264.1z"/>
			<polygon class="st20" points="210.3,268.9 200.5,268.9 226.2,175 236,175 			"/>
			<polygon class="st20" points="236.4,268.9 216.5,268.9 242.2,175 262.1,175 			"/>
			<path class="st4" d="M202.1,268.9h-25.8c-1.3,0-2.4-1.1-2.4-2.4v-89.1c0-1.3,1.1-2.4,2.4-2.4h25.8c1.3,0,2.4,1.1,2.4,2.4v89.1
				C204.5,267.8,203.5,268.9,202.1,268.9z"/>
			<path class="st5" d="M198.5,248.2h-5.3c-0.9,0-1.6-0.7-1.6-1.6l0,0c0-0.9,0.7-1.6,1.6-1.6h5.3c0.9,0,1.6,0.7,1.6,1.6l0,0
				C200.1,247.5,199.4,248.2,198.5,248.2z"/>
			<path class="st5" d="M184.2,248.2h-5.3c-0.9,0-1.6-0.7-1.6-1.6l0,0c0-0.9,0.7-1.6,1.6-1.6h5.3c0.9,0,1.6,0.7,1.6,1.6l0,0
				C185.8,247.5,185.1,248.2,184.2,248.2z"/>
			<g>
				<path class="st32" d="M244.3,268.9c-7.1,2.2-7.9,13.7-8.7,24.8c-0.8,11.5-1.6,22.4-8.6,25.3c-0.5,0.2-1.1,0.4-1.8,0.4
					c-1.1,0-2.3-0.4-3.6-1.7c-7.7-7.5-11.1-40.6-0.6-65.6c3.8-9.1,10.4-19.3,21.7-25.4c-0.3,0.9-0.7,1.7-1,2.6
					c-9.7,5.9-15.6,15.2-19.1,23.5c-10.1,24-7,56.7,0.2,63.7c1.2,1.1,2.3,1.5,3.5,1c6.1-2.6,6.8-13.4,7.6-23.9
					c0.7-10,1.5-20.4,6.8-24.7H244.3z"/>
				<path class="st32" d="M266.8,222.2c0,0.5-0.4,0.8-0.9,0.8h-0.6c-1.3,0-2.6,0-3.8,0.1c0.3-0.6,0.6-1.2,0.9-1.8
					c0.9-0.1,1.9-0.1,2.9-0.1h0.6C266.5,221.4,266.8,221.8,266.8,222.2z"/>
				<path class="st32" d="M366.8,265.7c0,0.5-0.4,0.8-0.9,0.9c-0.7,0-43,0.3-77.6,0.8c-19,0.3-35.7,0.7-42,1.1
					c-0.7,0.1-1.4,0.2-2,0.4h-3.6c1.5-1.2,3.3-1.9,5.5-2.1c6.1-0.4,21.9-0.8,40-1c35.1-0.6,79.1-0.9,79.7-0.9
					C366.4,264.9,366.8,265.3,366.8,265.7z"/>
			</g>
			<g>
				<path class="st33" d="M244,223.3c-0.3,0.7-0.6,1.4-0.9,2.1c-10.3,3.5-24.5,11.9-27.1,31.9c-2,15.4-0.7,28,0.4,38.2
					c1.3,11.6,2.1,19.3-3.3,22.8c-2.8,1.8-7.5,4.2-12.4,4.2c-1.8,0-3.6-0.3-5.4-1.1c-5.9-2.7-9.7-10.1-11.2-21.9
					c-2.8-21.6-0.3-41.6,6.1-49.7c1.8-2.3,3.9-3.6,6.2-3.9c0.5-0.1,0.9,0.3,1,0.7c0.1,0.5-0.3,0.9-0.7,0.9c-1.8,0.2-3.6,1.3-5.1,3.3
					c-6.2,7.8-8.5,27.3-5.8,48.5c1.4,11.2,4.8,18.1,10.2,20.5c5.8,2.7,12.6-0.7,16.1-3c4.5-2.9,3.8-10.2,2.6-21.2
					c-1.1-10.3-2.5-23-0.4-38.6C217.2,235.3,233.2,226.7,244,223.3z"/>
			</g>
			<path class="st3" d="M189.2,197.6L189.2,197.6c-4.5,0-8.1-3.6-8.1-8l0,0c0-4.4,3.6-8,8.1-8l0,0c4.5,0,8.1,3.6,8.1,8l0,0
				C197.3,194,193.7,197.6,189.2,197.6z"/>
			<path class="st3" d="M191.9,202.2h-5.3c-0.9,0-1.6-0.7-1.6-1.6l0,0c0-0.9,0.7-1.6,1.6-1.6h5.3c0.9,0,1.6,0.7,1.6,1.6l0,0
				C193.5,201.4,192.8,202.2,191.9,202.2z"/>
			<path class="st3" d="M191.9,206.7h-5.3c-0.9,0-1.6-0.7-1.6-1.6l0,0c0-0.9,0.7-1.6,1.6-1.6h5.3c0.9,0,1.6,0.7,1.6,1.6l0,0
				C193.5,206,192.8,206.7,191.9,206.7z"/>
			<path class="st5" d="M199.5,212.1H179c-0.9,0-1.6-0.7-1.6-1.6l0,0c0-0.9,0.7-1.6,1.6-1.6h20.5c0.9,0,1.6,0.7,1.6,1.6l0,0
				C201.1,211.4,200.4,212.1,199.5,212.1z"/>
			<path class="st5" d="M199.5,219.7H179c-0.9,0-1.6-0.7-1.6-1.6l0,0c0-0.9,0.7-1.6,1.6-1.6h20.5c0.9,0,1.6,0.7,1.6,1.6l0,0
				C201.1,219,200.4,219.7,199.5,219.7z"/>
			<path class="st5" d="M199.5,227.4H179c-0.9,0-1.6-0.7-1.6-1.6l0,0c0-0.9,0.7-1.6,1.6-1.6h20.5c0.9,0,1.6,0.7,1.6,1.6l0,0
				C201.1,226.6,200.4,227.4,199.5,227.4z"/>
			<path class="st5" d="M199.5,235H179c-0.9,0-1.6-0.7-1.6-1.6l0,0c0-0.9,0.7-1.6,1.6-1.6h20.5c0.9,0,1.6,0.7,1.6,1.6l0,0
				C201.1,234.3,200.4,235,199.5,235z"/>
			<path class="st3" d="M181.3,240.2c0,0.9-0.7,1.6-1.6,1.6c-0.9,0-1.6-0.7-1.6-1.6c0-0.9,0.7-1.6,1.6-1.6
				C180.6,238.6,181.3,239.3,181.3,240.2z"/>
			<path class="st3" d="M187.2,240.2c0,0.9-0.7,1.6-1.6,1.6c-0.9,0-1.6-0.7-1.6-1.6c0-0.9,0.7-1.6,1.6-1.6
				C186.5,238.6,187.2,239.3,187.2,240.2z"/>
			<path class="st3" d="M193.1,240.2c0,0.9-0.7,1.6-1.6,1.6c-0.9,0-1.6-0.7-1.6-1.6c0-0.9,0.7-1.6,1.6-1.6
				C192.4,238.6,193.1,239.3,193.1,240.2z"/>
			<path class="st3" d="M199,240.2c0,0.9-0.7,1.6-1.6,1.6s-1.6-0.7-1.6-1.6c0-0.9,0.7-1.6,1.6-1.6S199,239.3,199,240.2z"/>
		</g>
		<g>
			<path class="st34" d="M342.1,231.9h-85c-1.3,0-2.4-1.1-2.4-2.4v-91.2c0-1.3,1.1-2.4,2.4-2.4h85c1.3,0,2.4,1.1,2.4,2.4v91.2
				C344.6,230.9,343.5,231.9,342.1,231.9z"/>
			<path class="st16" d="M340.3,139.1v89.6c0,1.8-1.4,3.2-3.2,3.2h-83.3c-1.8,0-3.2-1.4-3.2-3.2v-89.6c0-1.8,1.4-3.2,3.2-3.2h83.3
				C338.8,135.9,340.3,137.4,340.3,139.1z"/>
			<path class="st5" d="M324.9,155.6v76.3h-71.2c-1.8,0-3.2-1.4-3.2-3.2v-76.3h71.2C323.5,152.4,324.9,153.9,324.9,155.6z"/>
			<path class="st5" d="M283.7,194.3c0,8.4-2.6,15.6-6.3,18.2c-1,0.7-2,1.1-3.1,1.1c-1,0-2-0.3-2.9-1c-3.7-2.5-6.4-9.8-6.4-18.3
				c0-10.6,4.2-19.3,9.3-19.3C279.6,175,283.7,183.6,283.7,194.3z"/>
			<path class="st2" d="M280.8,195.3c0,5-1.5,9.2-3.7,10.7c-0.6,0.4-1.2,0.6-1.8,0.6c-0.6,0-1.2-0.2-1.7-0.6
				c-2.2-1.5-3.8-5.7-3.8-10.8c0-6.3,2.5-11.3,5.5-11.3C278.4,183.9,280.8,189,280.8,195.3z"/>
			<path class="st11" d="M279.3,195.3c0,5-1.5,9.2-3.7,10.7c-0.6,0.4-1.2,0.6-1.8,0.6c-0.6,0-1.2-0.2-1.7-0.6
				c-2.2-1.5-3.8-5.7-3.8-10.8c0-6.3,2.5-11.3,5.5-11.3C276.8,183.9,279.3,189,279.3,195.3z"/>
			<path class="st2" d="M289,268.9h-58.6c0,0,1.1-5.8,3.2-14.2c0.5-1.8,1-3.8,1.6-5.8c1.7-6,3.8-12.8,6.4-19.6
				c0.3-0.9,0.7-1.7,1-2.6v0c0.2-0.5,0.4-0.9,0.6-1.4c0.3-0.7,0.6-1.4,0.9-2.1c4.9-11.5,11.2-22.4,19-28.6c1.1-0.9,2.2-1.7,3.4-2.4
				c2-1.2,4.1-2.1,6.3-2.6c5.2-1.2,3.9,10.5,2.3,12.8c-0.8,1.1-7,8.9-12.5,18.9c-0.3,0.6-0.6,1.2-0.9,1.8
				c-5.2,9.8-9.3,21.2-6.8,30.5c0.1,0.3,0.4,0.6,0.9,0.9c4.4,2.8,23.3,6.8,30.5,11.1c0.9,0.6,1.6,1.1,2.1,1.7
				C288.7,267.9,289,268.4,289,268.9z"/>
			<path class="st5" d="M275,202.6c-1.5,2.3-25.5,31.6-20.2,51.2c0.1,0.3,0.4,0.6,0.9,0.9c-3.5-1.2-6.8-3.4-6.3-7.4
				c0.4-26,21.7-45.8,20-50.8c-0.7-2.2-1.9-3.4-3-4.2c2-1.2,4.1-2.1,6.3-2.6C277.8,188.5,276.5,200.2,275,202.6z"/>
			<path class="st5" d="M270.8,268.9h-40.4c0,0,1.1-5.8,3.2-14.2c2.5,7.2,9.1,10.3,18.8,11C264.1,266.7,270.8,268.9,270.8,268.9z"/>
			<path class="st20" d="M257.1,208.9c-12.3,12.5-14.9,37.1-17.6,39.5c-1.8,1.6-3.5,1-4.4,0.5c5-18,14.2-43.3,27.8-54.2
				C264.2,197.9,263.1,202.8,257.1,208.9z"/>
			<path class="st2" d="M267,224.2h-1.6c-0.7,0-1.3-0.6-1.3-1.3v-1.5c0-0.7,0.6-1.3,1.3-1.3h1.6c0.7,0,1.3,0.6,1.3,1.3v1.5
				C268.3,223.6,267.7,224.2,267,224.2z"/>
			<path class="st2" d="M288.9,224.2h-1.8c-0.7,0-1.3-0.6-1.3-1.3v-1.7c0-0.7,0.6-1.3,1.3-1.3h1.8c0.7,0,1.3,0.6,1.3,1.3v1.7
				C290.2,223.6,289.6,224.2,288.9,224.2z"/>
			<path class="st2" d="M295.5,224.2h-1.8c-0.7,0-1.3-0.6-1.3-1.3v-1.7c0-0.7,0.6-1.3,1.3-1.3h1.8c0.7,0,1.3,0.6,1.3,1.3v1.7
				C296.7,223.6,296.2,224.2,295.5,224.2z"/>
			<path class="st2" d="M302.1,224.2h-1.8c-0.7,0-1.3-0.6-1.3-1.3v-1.7c0-0.7,0.6-1.3,1.3-1.3h1.8c0.7,0,1.3,0.6,1.3,1.3v1.7
				C303.3,223.6,302.8,224.2,302.1,224.2z"/>
			<rect x="266" y="160.6" class="st2" width="19.6" height="6.4"/>
		</g>
	</g>
</g>
<g id="DESIGNED_BY_FREEPIK">
</g>
</svg>
