<?xml version="1.0" encoding="utf-8"?>
<!-- Generator: Adobe Illustrator 23.0.3, SVG Export Plug-In . SVG Version: 6.00 Build 0)  -->
<svg version="1.1" xmlns="http://www.w3.org/2000/svg" xmlns:xlink="http://www.w3.org/1999/xlink" x="0px" y="0px"
	 viewBox="0 0 750 500" style="enable-background:new 0 0 750 500;" xml:space="preserve">
<style type="text/css">
	.st0{fill:#F5F5F5;}
	.st1{fill:#E0E0E0;}
	.st2{fill:#FFFFFF;}
	.st3{fill:#EBEBEB;}
	.st4{fill:#FAFAFA;}
	.st5{display:none;}
	.st6{display:inline;fill:#EBEBEB;}
	.st7{fill:#263238;}
	.st8{fill:#455A64;}
	.st9{fill:#E8505B;}
	.st10{opacity:0.4;}
	.st11{opacity:0.3;}
	.st12{fill:#FFBE9D;}
	.st13{fill:#EB996E;}
	.st14{opacity:0.2;}
</style>
<g id="Background_Complete">
	<g>
		<g>
			<g>
				<polygon class="st0" points="255.5,275.2 92.5,275.2 104.5,159.1 268.9,159.1 				"/>
			</g>
		</g>
		<g>
			<g>
				<g>
					<path class="st1" d="M110.4,255.7c-0.1,0,1.5-17.5,3.8-39c2.2-21.5,4.1-39,4.3-38.9c0.1,0-1.5,17.5-3.8,39
						C112.5,238.3,110.5,255.7,110.4,255.7z"/>
				</g>
			</g>
			<g>
				<g>
					<path class="st1" d="M140.1,181.7c0,0.1-3.7,0.3-8.2,0.3c-4.5,0-8.2-0.1-8.2-0.3c0-0.1,3.7-0.3,8.2-0.3
						C136.4,181.4,140.1,181.5,140.1,181.7z"/>
				</g>
			</g>
			<g>
				<g>
					<path class="st1" d="M209.7,181.7c0,0.1-14.6,0.3-32.6,0.3c-18,0-32.6-0.1-32.6-0.3c0-0.1,14.6-0.3,32.6-0.3
						C195.1,181.4,209.7,181.5,209.7,181.7z"/>
				</g>
			</g>
			<g>
				<g>
					<path class="st1" d="M138.1,222.9c0,0.1-3.7,0.3-8.2,0.3c-4.5,0-8.2-0.1-8.2-0.3c0-0.1,3.7-0.3,8.2-0.3
						C134.5,222.7,138.1,222.8,138.1,222.9z"/>
				</g>
			</g>
			<g>
				<g>
					<path class="st1" d="M207.8,222.9c0,0.1-14.6,0.3-32.6,0.3c-18,0-32.6-0.1-32.6-0.3c0-0.1,14.6-0.3,32.6-0.3
						C193.2,222.7,207.8,222.8,207.8,222.9z"/>
				</g>
			</g>
			<g>
				<g>
					<path class="st1" d="M185.6,242c0,0.1-14.6,0.3-32.6,0.3c-18,0-32.6-0.1-32.6-0.3c0-0.1,14.6-0.3,32.6-0.3
						C171,241.7,185.6,241.8,185.6,242z"/>
				</g>
			</g>
			<g>
				<g>
					<path class="st1" d="M147.3,193.3c0,0.1-5.2,0.3-11.5,0.3c-6.4,0-11.5-0.1-11.5-0.3c0-0.1,5.2-0.3,11.5-0.3
						C142.1,193.1,147.3,193.2,147.3,193.3z"/>
				</g>
			</g>
			<g>
				<g>
					<path class="st1" d="M146.7,210.4c0,0.1-5.2,0.3-11.5,0.3c-6.4,0-11.5-0.1-11.5-0.3c0-0.1,5.2-0.3,11.5-0.3
						C141.5,210.1,146.7,210.3,146.7,210.4z"/>
				</g>
			</g>
			<g>
				<g>
					<path class="st1" d="M166.2,234.8c0,0.1-5.2,0.3-11.5,0.3c-6.4,0-11.5-0.1-11.5-0.3c0-0.1,5.2-0.3,11.5-0.3
						C161,234.5,166.2,234.7,166.2,234.8z"/>
				</g>
			</g>
			<g>
				<g>
					<path class="st1" d="M231,193.3c0,0.1-13.2,0.3-29.4,0.3c-16.2,0-29.4-0.1-29.4-0.3c0-0.1,13.2-0.3,29.4-0.3
						C217.9,193.1,231,193.2,231,193.3z"/>
				</g>
			</g>
			<g>
				<g>
					<path class="st1" d="M212.9,211.4c0,0.1-13.2,0.3-29.4,0.3c-16.2,0-29.4-0.1-29.4-0.3c0-0.1,13.2-0.3,29.4-0.3
						C199.7,211.1,212.9,211.2,212.9,211.4z"/>
				</g>
			</g>
			<g>
				<g>
					<path class="st1" d="M233.1,234.8c0,0.1-13.2,0.3-29.4,0.3c-16.2,0-29.4-0.1-29.4-0.3c0-0.1,13.2-0.3,29.4-0.3
						C219.9,234.5,233.1,234.7,233.1,234.8z"/>
				</g>
			</g>
			<g>
				<g>
					<path class="st1" d="M179.4,255.7c0,0.1-13.2,0.3-29.4,0.3c-16.2,0-29.4-0.1-29.4-0.3c0-0.1,13.2-0.3,29.4-0.3
						C166.3,255.5,179.4,255.6,179.4,255.7z"/>
				</g>
			</g>
			<g>
				<g>
					<path class="st1" d="M244.4,255.7c0,0.1-13.2,0.3-29.4,0.3c-16.2,0-29.4-0.1-29.4-0.3c0-0.1,13.2-0.3,29.4-0.3
						C231.3,255.5,244.4,255.6,244.4,255.7z"/>
				</g>
			</g>
			<g>
				<g>
					<path class="st1" d="M179.4,262.5c0,0.1-13.2,0.3-29.4,0.3c-16.2,0-29.4-0.1-29.4-0.3s13.2-0.3,29.4-0.3
						C166.2,262.3,179.4,262.4,179.4,262.5z"/>
				</g>
			</g>
			<g>
				<g>
					<path class="st1" d="M182.3,198.2c0,0.1-13.2,0.3-29.4,0.3c-16.2,0-29.4-0.1-29.4-0.3c0-0.1,13.2-0.3,29.4-0.3
						C169.1,198,182.3,198.1,182.3,198.2z"/>
				</g>
			</g>
			<g>
				<g>
					<path class="st1" d="M166.6,193.4c0,0.1-3.4,0.3-7.6,0.3c-4.2,0-7.6-0.1-7.6-0.3s3.4-0.3,7.6-0.3
						C163.2,193.1,166.6,193.2,166.6,193.4z"/>
				</g>
			</g>
			<g>
				<g>
					<path class="st1" d="M136.2,228.5c0,0.1-3.4,0.3-7.6,0.3c-4.2,0-7.6-0.1-7.6-0.3c0-0.1,3.4-0.3,7.6-0.3
						C132.8,228.3,136.2,228.4,136.2,228.5z"/>
				</g>
			</g>
			<g>
				<g>
					<path class="st1" d="M135.9,234.8c0,0.1-3.4,0.3-7.6,0.3c-4.2,0-7.6-0.1-7.6-0.3c0-0.1,3.4-0.3,7.6-0.3
						C132.5,234.5,135.9,234.7,135.9,234.8z"/>
				</g>
			</g>
			<g>
				<g>
					<path class="st1" d="M267.1,171.4c0,0.1-36.7,0.3-81.9,0.3c-45.2,0-81.9-0.1-81.9-0.3s36.6-0.3,81.9-0.3
						C230.4,171.1,267.1,171.2,267.1,171.4z"/>
				</g>
			</g>
			<g>
				<circle class="st2" cx="114.4" cy="165.9" r="1.9"/>
			</g>
			<g>
				<circle class="st2" cx="122.7" cy="165.9" r="1.9"/>
			</g>
			<g>
				<circle class="st2" cx="131.1" cy="165.9" r="1.9"/>
			</g>
		</g>
	</g>
	<g>
		<g>
			<g>
				<polygon class="st0" points="678.7,217.2 515.7,217.2 527.7,101.1 692.1,101.1 				"/>
			</g>
		</g>
		<g>
			<g>
				<g>
					<path class="st1" d="M533.6,197.7c-0.1,0,1.5-17.5,3.8-39c2.2-21.5,4.1-39,4.3-38.9c0.1,0-1.5,17.5-3.8,39
						C535.6,180.3,533.7,197.7,533.6,197.7z"/>
				</g>
			</g>
			<g>
				<g>
					<path class="st1" d="M563.3,123.6c0,0.1-3.7,0.3-8.2,0.3c-4.5,0-8.2-0.1-8.2-0.3c0-0.1,3.7-0.3,8.2-0.3
						C559.6,123.4,563.3,123.5,563.3,123.6z"/>
				</g>
			</g>
			<g>
				<g>
					<path class="st1" d="M632.9,123.6c0,0.1-14.6,0.3-32.6,0.3c-18,0-32.6-0.1-32.6-0.3c0-0.1,14.6-0.3,32.6-0.3
						C618.3,123.4,632.9,123.5,632.9,123.6z"/>
				</g>
			</g>
			<g>
				<g>
					<path class="st1" d="M561.3,164.9c0,0.1-3.7,0.3-8.2,0.3c-4.5,0-8.2-0.1-8.2-0.3c0-0.1,3.7-0.3,8.2-0.3
						C557.7,164.6,561.3,164.7,561.3,164.9z"/>
				</g>
			</g>
			<g>
				<g>
					<path class="st1" d="M630.9,164.9c0,0.1-14.6,0.3-32.6,0.3c-18,0-32.6-0.1-32.6-0.3c0-0.1,14.6-0.3,32.6-0.3
						C616.4,164.6,630.9,164.7,630.9,164.9z"/>
				</g>
			</g>
			<g>
				<g>
					<path class="st1" d="M608.7,183.9c0,0.1-14.6,0.3-32.6,0.3c-18,0-32.6-0.1-32.6-0.3c0-0.1,14.6-0.3,32.6-0.3
						C594.2,183.6,608.7,183.8,608.7,183.9z"/>
				</g>
			</g>
			<g>
				<g>
					<path class="st1" d="M570.5,135.3c0,0.1-5.2,0.3-11.5,0.3c-6.4,0-11.5-0.1-11.5-0.3s5.2-0.3,11.5-0.3
						C565.3,135,570.5,135.1,570.5,135.3z"/>
				</g>
			</g>
			<g>
				<g>
					<path class="st1" d="M569.9,152.4c0,0.1-5.2,0.3-11.5,0.3c-6.4,0-11.5-0.1-11.5-0.3c0-0.1,5.2-0.3,11.5-0.3
						C564.7,152.1,569.9,152.2,569.9,152.4z"/>
				</g>
			</g>
			<g>
				<g>
					<path class="st1" d="M589.3,176.8c0,0.1-5.2,0.3-11.5,0.3c-6.4,0-11.5-0.1-11.5-0.3c0-0.1,5.2-0.3,11.5-0.3
						C584.2,176.5,589.3,176.6,589.3,176.8z"/>
				</g>
			</g>
			<g>
				<g>
					<path class="st1" d="M654.2,135.3c0,0.1-13.2,0.3-29.4,0.3c-16.2,0-29.4-0.1-29.4-0.3s13.2-0.3,29.4-0.3
						C641.1,135,654.2,135.1,654.2,135.3z"/>
				</g>
			</g>
			<g>
				<g>
					<path class="st1" d="M636.1,153.3c0,0.1-13.2,0.3-29.4,0.3c-16.2,0-29.4-0.1-29.4-0.3c0-0.1,13.2-0.3,29.4-0.3
						C622.9,153.1,636.1,153.2,636.1,153.3z"/>
				</g>
			</g>
			<g>
				<g>
					<path class="st1" d="M656.3,176.8c0,0.1-13.2,0.3-29.4,0.3c-16.2,0-29.4-0.1-29.4-0.3c0-0.1,13.2-0.3,29.4-0.3
						C643.1,176.5,656.3,176.6,656.3,176.8z"/>
				</g>
			</g>
			<g>
				<g>
					<path class="st1" d="M602.6,197.7c0,0.1-13.2,0.3-29.4,0.3c-16.2,0-29.4-0.1-29.4-0.3c0-0.1,13.2-0.3,29.4-0.3
						C589.4,197.4,602.6,197.5,602.6,197.7z"/>
				</g>
			</g>
			<g>
				<g>
					<path class="st1" d="M667.6,197.7c0,0.1-13.2,0.3-29.4,0.3c-16.2,0-29.4-0.1-29.4-0.3c0-0.1,13.2-0.3,29.4-0.3
						C654.5,197.4,667.6,197.5,667.6,197.7z"/>
				</g>
			</g>
			<g>
				<g>
					<path class="st1" d="M602.6,204.5c0,0.1-13.2,0.3-29.4,0.3c-16.2,0-29.4-0.1-29.4-0.3c0-0.1,13.2-0.3,29.4-0.3
						C589.4,204.2,602.6,204.3,602.6,204.5z"/>
				</g>
			</g>
			<g>
				<g>
					<path class="st1" d="M605.5,140.2c0,0.1-13.2,0.3-29.4,0.3c-16.2,0-29.4-0.1-29.4-0.3s13.2-0.3,29.4-0.3
						C592.3,139.9,605.5,140,605.5,140.2z"/>
				</g>
			</g>
			<g>
				<g>
					<path class="st1" d="M589.8,135.3c0,0.1-3.4,0.3-7.6,0.3c-4.2,0-7.6-0.1-7.6-0.3c0-0.1,3.4-0.3,7.6-0.3
						C586.4,135.1,589.8,135.2,589.8,135.3z"/>
				</g>
			</g>
			<g>
				<g>
					<path class="st1" d="M559.4,170.5c0,0.1-3.4,0.3-7.6,0.3c-4.2,0-7.6-0.1-7.6-0.3s3.4-0.3,7.6-0.3
						C556,170.2,559.4,170.3,559.4,170.5z"/>
				</g>
			</g>
			<g>
				<g>
					<path class="st1" d="M559.1,176.8c0,0.1-3.4,0.3-7.6,0.3c-4.2,0-7.6-0.1-7.6-0.3c0-0.1,3.4-0.3,7.6-0.3
						C555.7,176.5,559.1,176.6,559.1,176.8z"/>
				</g>
			</g>
			<g>
				<g>
					<path class="st1" d="M690.3,113.3c0,0.1-36.7,0.3-81.9,0.3c-45.2,0-81.9-0.1-81.9-0.3c0-0.1,36.6-0.3,81.9-0.3
						C653.6,113.1,690.3,113.2,690.3,113.3z"/>
				</g>
			</g>
			<g>
				<circle class="st2" cx="537.6" cy="107.8" r="1.9"/>
			</g>
			<g>
				<circle class="st2" cx="545.9" cy="107.8" r="1.9"/>
			</g>
			<g>
				<circle class="st2" cx="554.3" cy="107.8" r="1.9"/>
			</g>
		</g>
	</g>
	<g>
		<g>
			<g>
				<polygon class="st3" points="336.8,141.4 235.3,141.4 242.8,69.1 345.2,69.1 				"/>
			</g>
		</g>
		<g>
			<g>
				<g>
					<path class="st1" d="M246.5,129.2c-0.1,0,0.9-10.9,2.2-24.3c1.4-13.4,2.6-24.3,2.8-24.2c0.1,0-0.9,10.9-2.2,24.3
						C247.8,118.4,246.6,129.2,246.5,129.2z"/>
				</g>
			</g>
			<g>
				<g>
					<path class="st1" d="M265,83.1c0,0.1-2.3,0.3-5.1,0.3c-2.8,0-5.1-0.1-5.1-0.3s2.3-0.3,5.1-0.3C262.7,82.8,265,83,265,83.1z"/>
				</g>
			</g>
			<g>
				<g>
					<path class="st1" d="M308.3,83.1c0,0.1-9.1,0.3-20.3,0.3c-11.2,0-20.3-0.1-20.3-0.3s9.1-0.3,20.3-0.3
						C299.2,82.8,308.3,83,308.3,83.1z"/>
				</g>
			</g>
			<g>
				<g>
					<path class="st1" d="M263.7,108.8c0,0.1-2.3,0.3-5.1,0.3c-2.8,0-5.1-0.1-5.1-0.3c0-0.1,2.3-0.3,5.1-0.3
						C261.5,108.5,263.7,108.7,263.7,108.8z"/>
				</g>
			</g>
			<g>
				<g>
					<path class="st1" d="M307.1,108.8c0,0.1-9.1,0.3-20.3,0.3c-11.2,0-20.3-0.1-20.3-0.3c0-0.1,9.1-0.3,20.3-0.3
						C298,108.5,307.1,108.7,307.1,108.8z"/>
				</g>
			</g>
			<g>
				<g>
					<path class="st1" d="M293.3,120.6c0,0.1-9.1,0.3-20.3,0.3c-11.2,0-20.3-0.1-20.3-0.3c0-0.1,9.1-0.3,20.3-0.3
						C284.2,120.4,293.3,120.5,293.3,120.6z"/>
				</g>
			</g>
			<g>
				<g>
					<path class="st1" d="M269.4,90.4c0,0.1-3.2,0.3-7.2,0.3c-4,0-7.2-0.1-7.2-0.3c0-0.1,3.2-0.3,7.2-0.3
						C266.2,90.1,269.4,90.2,269.4,90.4z"/>
				</g>
			</g>
			<g>
				<g>
					<path class="st1" d="M269.1,101c0,0.1-3.2,0.3-7.2,0.3c-4,0-7.2-0.1-7.2-0.3c0-0.1,3.2-0.3,7.2-0.3
						C265.9,100.7,269.1,100.8,269.1,101z"/>
				</g>
			</g>
			<g>
				<g>
					<path class="st1" d="M281.2,116.2c0,0.1-3.2,0.3-7.2,0.3c-4,0-7.2-0.1-7.2-0.3c0-0.1,3.2-0.3,7.2-0.3
						C278,115.9,281.2,116.1,281.2,116.2z"/>
				</g>
			</g>
			<g>
				<g>
					<path class="st1" d="M321.6,90.4c0,0.1-8.2,0.3-18.3,0.3c-10.1,0-18.3-0.1-18.3-0.3c0-0.1,8.2-0.3,18.3-0.3
						C313.4,90.1,321.6,90.2,321.6,90.4z"/>
				</g>
			</g>
			<g>
				<g>
					<path class="st1" d="M310.3,101.6c0,0.1-8.2,0.3-18.3,0.3c-10.1,0-18.3-0.1-18.3-0.3c0-0.1,8.2-0.3,18.3-0.3
						C302.1,101.3,310.3,101.5,310.3,101.6z"/>
				</g>
			</g>
			<g>
				<g>
					<path class="st1" d="M322.9,116.2c0,0.1-8.2,0.3-18.3,0.3c-10.1,0-18.3-0.1-18.3-0.3c0-0.1,8.2-0.3,18.3-0.3
						C314.7,115.9,322.9,116.1,322.9,116.2z"/>
				</g>
			</g>
			<g>
				<g>
					<path class="st1" d="M289.5,129.2c0,0.1-8.2,0.3-18.3,0.3c-10.1,0-18.3-0.1-18.3-0.3s8.2-0.3,18.3-0.3
						C281.3,129,289.5,129.1,289.5,129.2z"/>
				</g>
			</g>
			<g>
				<g>
					<path class="st1" d="M330,129.2c0,0.1-8.2,0.3-18.3,0.3c-10.1,0-18.3-0.1-18.3-0.3s8.2-0.3,18.3-0.3
						C321.8,129,330,129.1,330,129.2z"/>
				</g>
			</g>
			<g>
				<g>
					<path class="st1" d="M289.5,133.5c0,0.1-8.2,0.3-18.3,0.3c-10.1,0-18.3-0.1-18.3-0.3c0-0.1,8.2-0.3,18.3-0.3
						C281.3,133.2,289.5,133.3,289.5,133.5z"/>
				</g>
			</g>
			<g>
				<g>
					<path class="st1" d="M291.2,93.4c0,0.1-8.2,0.3-18.3,0.3c-10.1,0-18.3-0.1-18.3-0.3s8.2-0.3,18.3-0.3
						C283,93.2,291.2,93.3,291.2,93.4z"/>
				</g>
			</g>
			<g>
				<g>
					<path class="st1" d="M281.5,90.4c0,0.1-2.1,0.3-4.7,0.3c-2.6,0-4.7-0.1-4.7-0.3c0-0.1,2.1-0.3,4.7-0.3
						C279.4,90.1,281.5,90.3,281.5,90.4z"/>
				</g>
			</g>
			<g>
				<g>
					<path class="st1" d="M262.6,112.3c0,0.1-2.1,0.3-4.7,0.3c-2.6,0-4.7-0.1-4.7-0.3c0-0.1,2.1-0.3,4.7-0.3
						C260.4,112,262.6,112.1,262.6,112.3z"/>
				</g>
			</g>
			<g>
				<g>
					<path class="st1" d="M262.3,116.2c0,0.1-2.1,0.3-4.7,0.3c-2.6,0-4.7-0.1-4.7-0.3c0-0.1,2.1-0.3,4.7-0.3
						C260.2,115.9,262.3,116.1,262.3,116.2z"/>
				</g>
			</g>
			<g>
				<g>
					<path class="st1" d="M344.1,76.7c0,0.1-22.8,0.3-51,0.3c-28.2,0-51-0.1-51-0.3c0-0.1,22.8-0.3,51-0.3
						C321.2,76.4,344.1,76.6,344.1,76.7z"/>
				</g>
			</g>
			<g>
				<path class="st2" d="M250.2,73.2c0,0.7-0.5,1.2-1.2,1.2c-0.7,0-1.2-0.5-1.2-1.2c0-0.7,0.5-1.2,1.2-1.2
					C249.6,72,250.2,72.6,250.2,73.2z"/>
			</g>
			<g>
				<path class="st2" d="M255.4,73.2c0,0.7-0.5,1.2-1.2,1.2c-0.7,0-1.2-0.5-1.2-1.2c0-0.7,0.5-1.2,1.2-1.2
					C254.8,72,255.4,72.6,255.4,73.2z"/>
			</g>
			<g>
				<path class="st2" d="M260.6,73.2c0,0.7-0.5,1.2-1.2,1.2c-0.7,0-1.2-0.5-1.2-1.2c0-0.7,0.5-1.2,1.2-1.2
					C260,72,260.6,72.6,260.6,73.2z"/>
			</g>
		</g>
	</g>
	<g>
		<g>
			<g>
				<g>
					<g>
						<rect x="561.6" y="267.5" class="st3" width="51.1" height="165.5"/>
					</g>
				</g>
			</g>
			<g>
				<g>
					<g>
						<rect x="612.7" y="267.6" class="st1" width="43.4" height="165.4"/>
					</g>
				</g>
			</g>
			<g>
				<g>
					<g>
						<rect x="565.6" y="274.2" class="st1" width="41" height="35.6"/>
					</g>
				</g>
			</g>
			<g>
				<g>
					<g>
						<rect x="565.6" y="313.9" class="st1" width="41" height="35.6"/>
					</g>
				</g>
			</g>
			<g>
				<g>
					<g>
						<rect x="565.6" y="353.6" class="st1" width="41" height="35.6"/>
					</g>
				</g>
			</g>
			<g>
				<g>
					<g>
						<rect x="565.6" y="393.3" class="st1" width="41" height="35.6"/>
					</g>
				</g>
			</g>
			<g>
				<g>
					<g>
						<path class="st4" d="M586.1,280.8c0,0.8-0.6,1.4-1.4,1.4c-0.8,0-1.4-0.6-1.4-1.4c0-0.8,0.6-1.4,1.4-1.4
							C585.4,279.4,586.1,280,586.1,280.8z"/>
					</g>
				</g>
			</g>
			<g>
				<g>
					<g>
						<path class="st4" d="M586.1,321c0,0.8-0.6,1.4-1.4,1.4c-0.8,0-1.4-0.6-1.4-1.4c0-0.8,0.6-1.4,1.4-1.4
							C585.4,319.5,586.1,320.2,586.1,321z"/>
					</g>
				</g>
			</g>
			<g>
				<g>
					<g>
						<path class="st4" d="M586.1,361.1c0,0.8-0.6,1.4-1.4,1.4c-0.8,0-1.4-0.6-1.4-1.4c0-0.8,0.6-1.4,1.4-1.4
							C585.4,359.7,586.1,360.3,586.1,361.1z"/>
					</g>
				</g>
			</g>
			<g>
				<g>
					<g>
						<path class="st4" d="M586.1,401.3c0,0.8-0.6,1.4-1.4,1.4c-0.8,0-1.4-0.6-1.4-1.4c0-0.8,0.6-1.4,1.4-1.4
							C585.4,399.8,586.1,400.5,586.1,401.3z"/>
					</g>
				</g>
			</g>
		</g>
		<g>
			<g>
				<rect x="561.6" y="433" class="st1" width="5.9" height="33.2"/>
			</g>
		</g>
		<g>
			<g>
				<rect x="606.6" y="433" class="st1" width="5.9" height="33.2"/>
			</g>
		</g>
		<g>
			<g>
				<rect x="649.6" y="433" class="st1" width="5.9" height="33.2"/>
			</g>
		</g>
	</g>
	<g>
		<g>
			<path class="st0" d="M132.1,456.8c-1.5-1.3-4.9-5.4-2.3-10.2c1-1.7,3-2.6,4.8-3.4c1.8-0.8,3.8-1.4,5.3-2.7
				c2.9-2.4,3.7-6.5,5.6-9.7c2.2-3.7,6.3-6.5,10.6-6.3c4.9,0.2,9,4.2,10.9,8.8c1.9,4.6,1.9,9.7,2,14.6c0,2.7-0.1,5.8-2.1,7.7
				c-1.9,1.7-4.7,1.7-7.2,1.6c-9-0.3-18-0.5-27-0.8"/>
		</g>
		<g>
			<g>
				<path class="st1" d="M183.7,383h-70.9l12.8,75.8c0.6,3.3,3,5.9,6.1,6.7c0.1,0,0.2,0,0.2,0.1c0.2,0.1,0.4,0.1,0.6,0.2
					c0.5,0.1,1,0.1,1.4,0.2c0,0,0,0,0,0.1l0.3-0.1c0,0,0,0,0,0h31.6c0.6,0,1.2-0.1,1.7-0.2c3.7-0.6,6.7-3.6,7.2-7.4l6.2-52.2
					l0.3-2.1h0l2.4-20.7L183.7,383z M170.3,431.4h-7.3l0.7-22h8.4L170.3,431.4z M172.9,409.4h7l-2.6,22H171L172.9,409.4z
					 M152.1,455.8l-0.4-19.1h10.5l-0.6,19.1H152.1z M140.8,436.7H151l0.4,19.1h-9.1L140.8,436.7z M141.6,455.8h-8.5
					c-0.8-5.2-1.9-11.9-3-19.1h10.1L141.6,455.8z M140.4,431.4l-1.7-22h11.7l0.5,22H140.4z M151.6,431.4l-0.5-22h12l-0.7,22H151.6z
					 M150.9,404.1l-0.5-20.4h13.5l-0.7,20.4H150.9z M150.2,404.1h-12l-1.6-20.4h13.1L150.2,404.1z M137.6,404.1h-12.7
					c-0.4-2.8-0.9-5.5-1.3-7.9c-1.3-8.2-1.8-11.3-2.1-12.5H136L137.6,404.1z M138,409.4l1.7,22h-10.5c-0.4-2.2-0.7-4.5-1.1-6.8
					c-0.8-5.2-1.6-10.4-2.4-15.3H138z M128.5,431.4h-6.8l-3.7-22h7.1C126.1,416.2,127.3,423.8,128.5,431.4z M129.3,436.7
					c1,6.6,2.1,13.1,3,19.1h-6.6l-3.2-19.1H129.3z M162.2,455.8l0.6-19.1h7l-1.6,19.1H162.2z M164,404.1l0.7-20.4h9.8l-1.7,20.4H164
					z M120.9,383.7c0.3,1.5,1.6,9.5,3.3,20.4h-7.1l-3.4-20.4H120.9z M174.4,455.8h-5.5l1.6-19.1h6.1L174.4,455.8z M180.5,404.1h-7.1
					l1.7-20.4h7.8L180.5,404.1z"/>
			</g>
		</g>
	</g>
</g>
<g id="Background_Simple" class="st5">
	<path class="st6" d="M190.5,144.7c-6.1,9.2-13.8,23-16.3,33.8c-7.9,34.1-6.7,56.1,6.2,86.1c9,20.9,22.4,31.7,37.4,48.9
		c11.9,13.6,29.7,26.8,45.2,36.1c22.5,13.5,43.3,23.5,68.3,31.2c31.3,9.6,64.7,9.6,97.4,8.6c37.2-1.1,76.1-3.7,108-22.8
		c31.7-18.9,53.3-53.8,56.1-90.7c1.5-19.9-2.5-40.9-15-56.4c-11.8-14.6-30-23-48.6-25.8c-18.6-2.8-37.5-0.4-55.9,3.4
		c-21,4.3-43.3,10.5-63.4,3c-26-9.7-38.8-38.2-57.8-58.3c-21.3-22.6-52.6-35.4-83.7-34.3C237.5,108.8,210,120.5,190.5,144.7
		L190.5,144.7z"/>
</g>
<g id="Floor">
	<g>
		<g>
			<path class="st7" d="M651,466.2c0,0.1-129.4,0.3-289,0.3c-159.7,0-289.1-0.1-289.1-0.3s129.4-0.3,289.1-0.3
				C521.6,465.9,651,466,651,466.2z"/>
		</g>
	</g>
</g>
<g id="Screens">
	<g>
		<g>
			<g>
				<polygon class="st7" points="396.2,249.9 285.3,249.9 293.5,170.9 405.3,170.9 				"/>
			</g>
			<g>
				<polygon class="st8" points="390.5,249.9 279.6,249.9 287.8,170.9 399.7,170.9 				"/>
			</g>
			<g>
				<polygon class="st0" points="386.4,246.3 283.5,246.3 291.1,173 394.9,173 				"/>
			</g>
		</g>
		<g>
			<g>
				<g>
					<path class="st7" d="M294.7,234.1c-0.1,0,0.9-11,2.3-24.6c1.4-13.6,2.7-24.6,2.8-24.6c0.1,0-0.9,11-2.3,24.6
						C296.1,223.1,294.8,234.1,294.7,234.1z"/>
				</g>
			</g>
			<g>
				<g>
					<path class="st7" d="M313.4,187.3c0,0.1-2.3,0.3-5.2,0.3c-2.9,0-5.2-0.1-5.2-0.3c0-0.1,2.3-0.3,5.2-0.3
						C311.1,187.1,313.4,187.2,313.4,187.3z"/>
				</g>
			</g>
			<g>
				<g>
					<path class="st9" d="M357.4,187.3c0,0.1-9.2,0.3-20.6,0.3c-11.4,0-20.6-0.1-20.6-0.3c0-0.1,9.2-0.3,20.6-0.3
						C348.1,187.1,357.4,187.2,357.4,187.3z"/>
				</g>
			</g>
			<g>
				<g>
					<path class="st7" d="M312.2,213.4c0,0.1-2.3,0.3-5.2,0.3c-2.9,0-5.2-0.1-5.2-0.3c0-0.1,2.3-0.3,5.2-0.3
						C309.9,213.1,312.2,213.2,312.2,213.4z"/>
				</g>
			</g>
			<g>
				<g>
					<path class="st9" d="M356.1,213.4c0,0.1-9.2,0.3-20.6,0.3c-11.4,0-20.6-0.1-20.6-0.3c0-0.1,9.2-0.3,20.6-0.3
						C346.9,213.1,356.1,213.2,356.1,213.4z"/>
				</g>
			</g>
			<g>
				<g>
					<path class="st9" d="M342.1,225.4c0,0.1-9.2,0.3-20.6,0.3c-11.4,0-20.6-0.1-20.6-0.3s9.2-0.3,20.6-0.3
						C332.9,225.1,342.1,225.2,342.1,225.4z"/>
				</g>
			</g>
			<g>
				<g>
					<path class="st9" d="M318,194.7c0,0.1-3.3,0.3-7.3,0.3c-4,0-7.3-0.1-7.3-0.3s3.3-0.3,7.3-0.3C314.7,194.4,318,194.5,318,194.7z
						"/>
				</g>
			</g>
			<g>
				<g>
					<path class="st9" d="M317.6,205.5c0,0.1-3.3,0.3-7.3,0.3c-4,0-7.3-0.1-7.3-0.3c0-0.1,3.3-0.3,7.3-0.3
						C314.3,205.2,317.6,205.3,317.6,205.5z"/>
				</g>
			</g>
			<g>
				<g>
					<path class="st9" d="M329.9,220.9c0,0.1-3.3,0.3-7.3,0.3c-4,0-7.3-0.1-7.3-0.3s3.3-0.3,7.3-0.3
						C326.6,220.6,329.9,220.7,329.9,220.9z"/>
				</g>
			</g>
			<g>
				<g>
					<path class="st7" d="M370.8,194.7c0,0.1-8.3,0.3-18.6,0.3c-10.3,0-18.6-0.1-18.6-0.3s8.3-0.3,18.6-0.3
						C362.5,194.4,370.8,194.5,370.8,194.7z"/>
				</g>
			</g>
			<g>
				<g>
					<path class="st7" d="M359.4,206.1c0,0.1-8.3,0.3-18.6,0.3c-10.3,0-18.6-0.1-18.6-0.3s8.3-0.3,18.6-0.3
						C351.1,205.8,359.4,205.9,359.4,206.1z"/>
				</g>
			</g>
			<g>
				<g>
					<path class="st7" d="M372.2,220.9c0,0.1-8.3,0.3-18.6,0.3c-10.3,0-18.6-0.1-18.6-0.3s8.3-0.3,18.6-0.3
						C363.8,220.6,372.2,220.7,372.2,220.9z"/>
				</g>
			</g>
			<g>
				<g>
					<path class="st7" d="M338.2,234.1c0,0.1-8.3,0.3-18.6,0.3c-10.3,0-18.6-0.1-18.6-0.3s8.3-0.3,18.6-0.3
						C329.9,233.8,338.2,233.9,338.2,234.1z"/>
				</g>
			</g>
			<g>
				<g>
					<path class="st7" d="M379.3,234.1c0,0.1-8.3,0.3-18.6,0.3c-10.3,0-18.6-0.1-18.6-0.3s8.3-0.3,18.6-0.3
						C371,233.8,379.3,233.9,379.3,234.1z"/>
				</g>
			</g>
			<g>
				<g>
					<path class="st7" d="M338.2,238.4c0,0.1-8.3,0.3-18.6,0.3c-10.3,0-18.6-0.1-18.6-0.3c0-0.1,8.3-0.3,18.6-0.3
						C329.9,238.1,338.2,238.2,338.2,238.4z"/>
				</g>
			</g>
			<g>
				<g>
					<path class="st7" d="M340.1,197.8c0,0.1-8.3,0.3-18.6,0.3c-10.3,0-18.6-0.1-18.6-0.3c0-0.1,8.3-0.3,18.6-0.3
						C331.7,197.5,340.1,197.6,340.1,197.8z"/>
				</g>
			</g>
			<g>
				<g>
					<path class="st8" d="M330.1,194.7c0,0.1-2.1,0.3-4.8,0.3c-2.6,0-4.8-0.1-4.8-0.3c0-0.1,2.1-0.3,4.8-0.3
						C328,194.5,330.1,194.6,330.1,194.7z"/>
				</g>
			</g>
			<g>
				<g>
					<path class="st8" d="M311,216.9c0,0.1-2.1,0.3-4.8,0.3c-2.6,0-4.8-0.1-4.8-0.3c0-0.1,2.1-0.3,4.8-0.3
						C308.8,216.7,311,216.8,311,216.9z"/>
				</g>
			</g>
			<g>
				<g>
					<path class="st8" d="M310.7,220.9c0,0.1-2.1,0.3-4.8,0.3c-2.6,0-4.8-0.1-4.8-0.3s2.1-0.3,4.8-0.3
						C308.6,220.6,310.7,220.7,310.7,220.9z"/>
				</g>
			</g>
			<g>
				<g>
					<path class="st7" d="M393.6,180.8c0,0.1-23.1,0.3-51.7,0.3c-28.6,0-51.7-0.1-51.7-0.3c0-0.1,23.1-0.3,51.7-0.3
						C370.5,180.6,393.6,180.7,393.6,180.8z"/>
				</g>
			</g>
			<g>
				<path class="st2" d="M298.4,177.3c0,0.7-0.5,1.2-1.2,1.2c-0.7,0-1.2-0.5-1.2-1.2c0-0.7,0.5-1.2,1.2-1.2
					C297.9,176.1,298.4,176.7,298.4,177.3z"/>
			</g>
			<g>
				<path class="st2" d="M303.7,177.3c0,0.7-0.5,1.2-1.2,1.2c-0.7,0-1.2-0.5-1.2-1.2c0-0.7,0.5-1.2,1.2-1.2
					C303.1,176.1,303.7,176.7,303.7,177.3z"/>
			</g>
			<g>
				<path class="st2" d="M309,177.3c0,0.7-0.5,1.2-1.2,1.2c-0.7,0-1.2-0.5-1.2-1.2c0-0.7,0.5-1.2,1.2-1.2
					C308.4,176.1,309,176.7,309,177.3z"/>
			</g>
		</g>
	</g>
	<g>
		<g>
			<g>
				<polygon class="st7" points="541.9,252.3 425.2,252.3 433.8,169.2 551.5,169.2 				"/>
			</g>
			<g>
				<polygon class="st8" points="535.9,252.3 419.3,252.3 427.9,169.2 545.5,169.2 				"/>
			</g>
			<g>
				<polygon class="st3" points="531.6,248.5 423.4,248.5 431.4,171.4 540.5,171.4 				"/>
			</g>
		</g>
		<g>
			<g>
				<g>
					<path class="st7" d="M435.1,234.5c-0.1,0,0.9-11.6,2.4-25.9c1.5-14.3,2.8-25.9,2.9-25.9c0.1,0-0.9,11.6-2.4,25.9
						C436.6,222.9,435.3,234.5,435.1,234.5z"/>
				</g>
			</g>
			<g>
				<g>
					<path class="st7" d="M454.9,185.3c0,0.1-2.4,0.3-5.4,0.3c-3,0-5.4-0.1-5.4-0.3s2.4-0.3,5.4-0.3
						C452.4,185,454.9,185.2,454.9,185.3z"/>
				</g>
			</g>
			<g>
				<g>
					<path class="st9" d="M501.1,185.3c0,0.1-9.7,0.3-21.6,0.3c-12,0-21.6-0.1-21.6-0.3s9.7-0.3,21.6-0.3
						C491.4,185,501.1,185.2,501.1,185.3z"/>
				</g>
			</g>
			<g>
				<g>
					<path class="st7" d="M453.6,212.7c0,0.1-2.4,0.3-5.4,0.3c-3,0-5.4-0.1-5.4-0.3s2.4-0.3,5.4-0.3
						C451.1,212.4,453.6,212.6,453.6,212.7z"/>
				</g>
			</g>
			<g>
				<g>
					<path class="st9" d="M499.8,212.7c0,0.1-9.7,0.3-21.6,0.3c-12,0-21.6-0.1-21.6-0.3s9.7-0.3,21.6-0.3
						C490.1,212.4,499.8,212.6,499.8,212.7z"/>
				</g>
			</g>
			<g>
				<g>
					<path class="st9" d="M485.1,225.3c0,0.1-9.7,0.3-21.6,0.3c-12,0-21.6-0.1-21.6-0.3s9.7-0.3,21.6-0.3
						C475.4,225.1,485.1,225.2,485.1,225.3z"/>
				</g>
			</g>
			<g>
				<g>
					<path class="st9" d="M459.6,193c0,0.1-3.4,0.3-7.6,0.3c-4.2,0-7.6-0.1-7.6-0.3s3.4-0.3,7.6-0.3
						C456.2,192.8,459.6,192.9,459.6,193z"/>
				</g>
			</g>
			<g>
				<g>
					<path class="st9" d="M459.3,204.4c0,0.1-3.4,0.3-7.6,0.3c-4.2,0-7.6-0.1-7.6-0.3s3.4-0.3,7.6-0.3
						C455.8,204.1,459.3,204.2,459.3,204.4z"/>
				</g>
			</g>
			<g>
				<g>
					<path class="st9" d="M472.2,220.6c0,0.1-3.4,0.3-7.6,0.3c-4.2,0-7.6-0.1-7.6-0.3s3.4-0.3,7.6-0.3
						C468.8,220.3,472.2,220.5,472.2,220.6z"/>
				</g>
			</g>
			<g>
				<g>
					<path class="st7" d="M515.3,193c0,0.1-8.7,0.3-19.5,0.3c-10.8,0-19.5-0.1-19.5-0.3s8.7-0.3,19.5-0.3
						C506.5,192.8,515.3,192.9,515.3,193z"/>
				</g>
			</g>
			<g>
				<g>
					<path class="st7" d="M503.2,205c0,0.1-8.7,0.3-19.5,0.3c-10.8,0-19.5-0.1-19.5-0.3s8.7-0.3,19.5-0.3
						C494.5,204.8,503.2,204.9,503.2,205z"/>
				</g>
			</g>
			<g>
				<g>
					<path class="st7" d="M516.7,220.6c0,0.1-8.7,0.3-19.5,0.3c-10.8,0-19.5-0.1-19.5-0.3s8.7-0.3,19.5-0.3
						C507.9,220.3,516.7,220.5,516.7,220.6z"/>
				</g>
			</g>
			<g>
				<g>
					<path class="st7" d="M481,234.5c0,0.1-8.7,0.3-19.5,0.3c-10.8,0-19.5-0.1-19.5-0.3s8.7-0.3,19.5-0.3
						C472.2,234.2,481,234.3,481,234.5z"/>
				</g>
			</g>
			<g>
				<g>
					<path class="st7" d="M524.2,234.5c0,0.1-8.7,0.3-19.5,0.3c-10.8,0-19.5-0.1-19.5-0.3s8.7-0.3,19.5-0.3
						C515.4,234.2,524.2,234.3,524.2,234.5z"/>
				</g>
			</g>
			<g>
				<g>
					<path class="st7" d="M481,239c0,0.1-8.7,0.3-19.5,0.3c-10.8,0-19.5-0.1-19.5-0.3s8.7-0.3,19.5-0.3
						C472.2,238.8,481,238.9,481,239z"/>
				</g>
			</g>
			<g>
				<g>
					<path class="st7" d="M482.9,196.3c0,0.1-8.7,0.3-19.5,0.3c-10.8,0-19.5-0.1-19.5-0.3c0-0.1,8.7-0.3,19.5-0.3
						C474.1,196,482.9,196.2,482.9,196.3z"/>
				</g>
			</g>
			<g>
				<g>
					<path class="st8" d="M472.5,193.1c0,0.1-2.3,0.3-5,0.3c-2.8,0-5-0.1-5-0.3s2.3-0.3,5-0.3C470.2,192.8,472.5,192.9,472.5,193.1z
						"/>
				</g>
			</g>
			<g>
				<g>
					<path class="st8" d="M452.3,216.4c0,0.1-2.3,0.3-5,0.3c-2.8,0-5-0.1-5-0.3s2.3-0.3,5-0.3C450,216.2,452.3,216.3,452.3,216.4z"
						/>
				</g>
			</g>
			<g>
				<g>
					<path class="st8" d="M452.1,220.6c0,0.1-2.3,0.3-5,0.3c-2.8,0-5-0.1-5-0.3s2.3-0.3,5-0.3C449.8,220.3,452.1,220.5,452.1,220.6z
						"/>
				</g>
			</g>
			<g>
				<g>
					<path class="st7" d="M539.2,178.5c0,0.1-24.3,0.3-54.4,0.3c-30,0-54.4-0.1-54.4-0.3c0-0.1,24.3-0.3,54.4-0.3
						C514.9,178.2,539.2,178.3,539.2,178.5z"/>
				</g>
			</g>
			<g>
				<path class="st2" d="M439.1,174.8c0,0.7-0.6,1.3-1.3,1.3c-0.7,0-1.3-0.6-1.3-1.3c0-0.7,0.6-1.3,1.3-1.3
					C438.5,173.5,439.1,174.1,439.1,174.8z"/>
			</g>
			<g>
				<path class="st2" d="M444.6,174.8c0,0.7-0.6,1.3-1.3,1.3s-1.3-0.6-1.3-1.3c0-0.7,0.6-1.3,1.3-1.3S444.6,174.1,444.6,174.8z"/>
			</g>
			<g>
				<path class="st2" d="M450.2,174.8c0,0.7-0.6,1.3-1.3,1.3s-1.3-0.6-1.3-1.3c0-0.7,0.6-1.3,1.3-1.3S450.2,174.1,450.2,174.8z"/>
			</g>
		</g>
	</g>
	<g>
		<g>
			<g>
				<polygon class="st7" points="475.3,153.9 363.9,153.9 372.1,74.5 484.5,74.5 				"/>
			</g>
			<g>
				<polygon class="st8" points="469.6,153.9 358.2,153.9 366.5,74.5 478.8,74.5 				"/>
			</g>
			<g>
				<polygon class="st4" points="465.5,150.3 362.1,150.3 369.8,76.7 474,76.7 				"/>
			</g>
		</g>
		<g>
			<g>
				<g>
					<path class="st7" d="M373.5,137.9c-0.1,0,0.9-11.1,2.3-24.7c1.4-13.7,2.7-24.7,2.8-24.7c0.1,0-0.9,11.1-2.3,24.7
						C374.9,126.9,373.6,138,373.5,137.9z"/>
				</g>
			</g>
			<g>
				<g>
					<path class="st7" d="M392.3,91c0,0.1-2.3,0.3-5.2,0.3c-2.9,0-5.2-0.1-5.2-0.3s2.3-0.3,5.2-0.3C390,90.7,392.3,90.8,392.3,91z"
						/>
				</g>
			</g>
			<g>
				<g>
					<path class="st9" d="M436.5,91c0,0.1-9.3,0.3-20.7,0.3c-11.4,0-20.7-0.1-20.7-0.3s9.3-0.3,20.7-0.3
						C427.2,90.7,436.5,90.8,436.5,91z"/>
				</g>
			</g>
			<g>
				<g>
					<path class="st7" d="M391.1,117.1c0,0.1-2.3,0.3-5.2,0.3c-2.9,0-5.2-0.1-5.2-0.3c0-0.1,2.3-0.3,5.2-0.3
						C388.8,116.9,391.1,117,391.1,117.1z"/>
				</g>
			</g>
			<g>
				<g>
					<path class="st9" d="M435.2,117.1c0,0.1-9.3,0.3-20.7,0.3c-11.4,0-20.7-0.1-20.7-0.3c0-0.1,9.3-0.3,20.7-0.3
						C426,116.9,435.2,117,435.2,117.1z"/>
				</g>
			</g>
			<g>
				<g>
					<path class="st9" d="M421.2,129.2c0,0.1-9.3,0.3-20.7,0.3c-11.4,0-20.7-0.1-20.7-0.3s9.3-0.3,20.7-0.3
						C411.9,129,421.2,129.1,421.2,129.2z"/>
				</g>
			</g>
			<g>
				<g>
					<path class="st9" d="M396.9,98.4c0,0.1-3.3,0.3-7.3,0.3c-4,0-7.3-0.1-7.3-0.3c0-0.1,3.3-0.3,7.3-0.3
						C393.6,98.1,396.9,98.2,396.9,98.4z"/>
				</g>
			</g>
			<g>
				<g>
					<path class="st9" d="M396.5,109.2c0,0.1-3.3,0.3-7.3,0.3c-4,0-7.3-0.1-7.3-0.3c0-0.1,3.3-0.3,7.3-0.3
						C393.3,108.9,396.5,109.1,396.5,109.2z"/>
				</g>
			</g>
			<g>
				<g>
					<path class="st9" d="M408.9,124.7c0,0.1-3.3,0.3-7.3,0.3c-4,0-7.3-0.1-7.3-0.3c0-0.1,3.3-0.3,7.3-0.3
						C405.6,124.4,408.9,124.5,408.9,124.7z"/>
				</g>
			</g>
			<g>
				<g>
					<path class="st7" d="M450,98.4c0,0.1-8.4,0.3-18.6,0.3c-10.3,0-18.7-0.1-18.7-0.3c0-0.1,8.3-0.3,18.7-0.3
						C441.7,98.1,450,98.2,450,98.4z"/>
				</g>
			</g>
			<g>
				<g>
					<path class="st7" d="M438.5,109.8c0,0.1-8.4,0.3-18.6,0.3c-10.3,0-18.7-0.1-18.7-0.3c0-0.1,8.3-0.3,18.7-0.3
						C430.1,109.6,438.5,109.7,438.5,109.8z"/>
				</g>
			</g>
			<g>
				<g>
					<path class="st7" d="M451.3,124.7c0,0.1-8.4,0.3-18.6,0.3c-10.3,0-18.7-0.1-18.7-0.3c0-0.1,8.3-0.3,18.7-0.3
						C443,124.4,451.3,124.5,451.3,124.7z"/>
				</g>
			</g>
			<g>
				<g>
					<path class="st7" d="M417.3,137.9c0,0.1-8.4,0.3-18.6,0.3c-10.3,0-18.7-0.1-18.7-0.3s8.3-0.3,18.7-0.3
						C408.9,137.7,417.3,137.8,417.3,137.9z"/>
				</g>
			</g>
			<g>
				<g>
					<path class="st7" d="M458.5,137.9c0,0.1-8.4,0.3-18.6,0.3c-10.3,0-18.7-0.1-18.7-0.3s8.3-0.3,18.7-0.3
						C450.2,137.7,458.5,137.8,458.5,137.9z"/>
				</g>
			</g>
			<g>
				<g>
					<path class="st7" d="M417.3,142.3c0,0.1-8.4,0.3-18.6,0.3c-10.3,0-18.7-0.1-18.7-0.3s8.3-0.3,18.7-0.3
						C408.9,142,417.3,142.1,417.3,142.3z"/>
				</g>
			</g>
			<g>
				<g>
					<path class="st7" d="M419.1,101.5c0,0.1-8.4,0.3-18.6,0.3c-10.3,0-18.7-0.1-18.7-0.3c0-0.1,8.3-0.3,18.7-0.3
						C410.7,101.2,419.1,101.3,419.1,101.5z"/>
				</g>
			</g>
			<g>
				<g>
					<path class="st8" d="M409.1,98.4c0,0.1-2.2,0.3-4.8,0.3c-2.7,0-4.8-0.1-4.8-0.3c0-0.1,2.2-0.3,4.8-0.3
						C407,98.1,409.1,98.3,409.1,98.4z"/>
				</g>
			</g>
			<g>
				<g>
					<path class="st8" d="M389.9,120.7c0,0.1-2.2,0.3-4.8,0.3c-2.7,0-4.8-0.1-4.8-0.3c0-0.1,2.2-0.3,4.8-0.3
						C387.7,120.4,389.9,120.6,389.9,120.7z"/>
				</g>
			</g>
			<g>
				<g>
					<path class="st8" d="M389.6,124.7c0,0.1-2.2,0.3-4.8,0.3c-2.7,0-4.8-0.1-4.8-0.3c0-0.1,2.2-0.3,4.8-0.3
						C387.5,124.4,389.6,124.5,389.6,124.7z"/>
				</g>
			</g>
			<g>
				<g>
					<path class="st7" d="M472.9,84.5c0,0.1-23.2,0.3-51.9,0.3c-28.7,0-51.9-0.1-51.9-0.3s23.2-0.3,51.9-0.3
						C449.6,84.2,472.9,84.3,472.9,84.5z"/>
				</g>
			</g>
			<g>
				<circle class="st2" cx="376" cy="80.9" r="1.2"/>
			</g>
			<g>
				<circle class="st2" cx="381.3" cy="80.9" r="1.2"/>
			</g>
			<g>
				<circle class="st2" cx="386.6" cy="80.9" r="1.2"/>
			</g>
		</g>
	</g>
</g>
<g id="Character">
	<g>
		<g>
			<rect x="277.9" y="453.7" class="st7" width="8.7" height="11.8"/>
		</g>
		<g>
			<g>
				<g>
					<g>
						<g>
							<g>
								
									<rect x="333.1" y="311.8" transform="matrix(-1 -1.224647e-16 1.224647e-16 -1 743.2178 627.3208)" class="st7" width="77" height="3.7"/>
							</g>
						</g>
						<g>
							<g>
								<polygon class="st7" points="422.1,315.5 436.5,261.4 376.4,261.4 363.3,315.5 								"/>
							</g>
						</g>
					</g>
					<g>
						<g>
							<polygon class="st0" points="366.9,311.4 420.6,311.4 433.1,263.9 379.1,263.9 							"/>
						</g>
					</g>
				</g>
				<g>
					<polygon class="st1" points="380.4,273.1 377.1,286.6 412.7,286.6 416.5,273.1 					"/>
				</g>
				<g>
					<g>
						<path class="st8" d="M409,271.3c0,0.1-6.2,0.3-14,0.3c-7.7,0-14-0.1-14-0.3c0-0.1,6.2-0.3,14-0.3
							C402.8,271.1,409,271.2,409,271.3z"/>
					</g>
				</g>
				<g>
					<g>
						<path class="st7" d="M392.8,275.7c0,0.1-2.5,0.3-5.6,0.3c-3.1,0-5.6-0.1-5.6-0.3s2.5-0.3,5.6-0.3
							C390.3,275.4,392.8,275.5,392.8,275.7z"/>
					</g>
				</g>
				<g>
					<g>
						<path class="st7" d="M401.8,275.5c0,0.1-1.6,0.3-3.7,0.3c-2,0-3.7-0.1-3.7-0.3s1.6-0.3,3.7-0.3
							C400.2,275.2,401.8,275.3,401.8,275.5z"/>
					</g>
				</g>
				<g>
					<g>
						<path class="st8" d="M412,278.1c0,0.1-6.9,0.3-15.4,0.3c-8.5,0-15.4-0.1-15.4-0.3s6.9-0.3,15.4-0.3
							C405.1,277.9,412,278,412,278.1z"/>
					</g>
				</g>
				<g>
					<g>
						<path class="st9" d="M390.6,280.4c0,0.1-2.2,0.3-5,0.3c-2.8,0-5-0.1-5-0.3s2.2-0.3,5-0.3C388.3,280.1,390.6,280.2,390.6,280.4
							z"/>
					</g>
				</g>
				<g>
					<g>
						<path class="st8" d="M409.2,283.5c0,0.1-6.4,0.3-14.3,0.3c-7.9,0-14.3-0.1-14.3-0.3s6.4-0.3,14.3-0.3
							C402.8,283.3,409.2,283.4,409.2,283.5z"/>
					</g>
				</g>
				<g>
					<g>
						<path class="st8" d="M388.2,290.4c0,0.1-2.5,0.3-5.5,0.3c-3,0-5.5-0.1-5.5-0.3s2.5-0.3,5.5-0.3
							C385.8,290.2,388.2,290.3,388.2,290.4z"/>
					</g>
				</g>
				<g>
					<g>
						<path class="st7" d="M397.7,290.5c0,0.1-1.7,0.2-3.8,0.2c-2.1,0-3.8-0.1-3.8-0.3c0-0.1,1.7-0.2,3.8-0.2
							C396,290.2,397.7,290.3,397.7,290.5z"/>
					</g>
				</g>
				<g>
					<g>
						<path class="st7" d="M403,290.2c0,0.1-0.7,0.3-1.6,0.3c-0.9,0-1.6-0.1-1.6-0.3s0.7-0.3,1.6-0.3C402.3,290,403,290.1,403,290.2
							z"/>
					</g>
				</g>
				<g>
					<g>
						<path class="st9" d="M380.9,293.2c0,0.1-0.8,0.3-1.8,0.3c-1,0-1.8-0.1-1.8-0.3c0-0.1,0.8-0.3,1.8-0.3
							C380.1,292.9,380.9,293,380.9,293.2z"/>
					</g>
				</g>
				<g>
					<g>
						<path class="st7" d="M391.4,293.2c0,0.1-1.9,0.3-4.2,0.3c-2.3,0-4.2-0.1-4.2-0.3c0-0.1,1.9-0.3,4.2-0.3
							C389.5,292.9,391.4,293,391.4,293.2z"/>
					</g>
				</g>
				<g>
					<g>
						<path class="st8" d="M416.5,292.9c0,0.1-5,0.3-11.2,0.3c-6.2,0-11.2-0.1-11.2-0.3c0-0.1,5-0.3,11.2-0.3
							C411.4,292.6,416.5,292.7,416.5,292.9z"/>
					</g>
				</g>
				<g>
					<g>
						<path class="st7" d="M380.4,296.1c0,0.1-0.8,0.3-1.8,0.3c-1,0-1.8-0.1-1.8-0.3c0-0.1,0.8-0.3,1.8-0.3
							C379.6,295.8,380.4,295.9,380.4,296.1z"/>
					</g>
				</g>
				<g>
					<g>
						<path class="st7" d="M385.9,296c0,0.1-1,0.3-2.2,0.3c-1.2,0-2.2-0.1-2.2-0.3c0-0.1,1-0.3,2.2-0.3
							C384.9,295.7,385.9,295.8,385.9,296z"/>
					</g>
				</g>
				<g>
					<g>
						<path class="st8" d="M402.3,295.7c0,0.1-3.2,0.3-7.1,0.3c-3.9,0-7.1-0.1-7.1-0.3c0-0.1,3.2-0.3,7.1-0.3
							C399.2,295.5,402.3,295.6,402.3,295.7z"/>
					</g>
				</g>
				<g>
					<g>
						<path class="st8" d="M393.6,300.7c0,0.1-3.8,0.3-8.5,0.3c-4.7,0-8.5-0.1-8.5-0.3s3.8-0.3,8.5-0.3
							C389.8,300.5,393.6,300.6,393.6,300.7z"/>
					</g>
				</g>
				<g>
					<g>
						<path class="st9" d="M403.6,300.5c0,0.1-1.7,0.3-3.9,0.3c-2.1,0-3.9-0.1-3.9-0.3s1.7-0.3,3.9-0.3
							C401.9,300.3,403.6,300.4,403.6,300.5z"/>
					</g>
				</g>
				<g>
					<g>
						<path class="st7" d="M418.4,300.5c0,0.1-2.9,0.3-6.4,0.3c-3.5,0-6.4-0.1-6.4-0.3s2.9-0.3,6.4-0.3
							C415.5,300.3,418.4,300.4,418.4,300.5z"/>
					</g>
				</g>
				<g>
					<g>
						<path class="st7" d="M415,271.1c0,0.1-0.6,0.3-1.3,0.3c-0.7,0-1.3-0.1-1.3-0.3s0.6-0.3,1.3-0.3C414.4,270.9,415,271,415,271.1
							z"/>
					</g>
				</g>
				<g>
					<g>
						<path class="st9" d="M387.9,269.3c0,0.1-1.3,0.3-2.9,0.3c-1.6,0-2.9-0.1-2.9-0.3c0-0.1,1.3-0.3,2.9-0.3
							C386.6,269.1,387.9,269.2,387.9,269.3z"/>
					</g>
				</g>
				<g>
					<path class="st3" d="M432.2,267.3c-18.2,0-35.8,0-54,0l0.9-3.4h54L432.2,267.3z"/>
				</g>
				<g>
					<circle class="st4" cx="381.4" cy="265.6" r="0.6"/>
				</g>
				<g>
					<circle class="st4" cx="383.4" cy="265.6" r="0.6"/>
				</g>
				<g>
					<circle class="st4" cx="385.5" cy="265.6" r="0.6"/>
				</g>
			</g>
			<g>
				<g>
					<g>
						<g>
							<rect x="370" y="320.6" class="st7" width="128" height="74.7"/>
						</g>
						<g>
							<rect x="370" y="320.6" class="st8" width="58.3" height="74.7"/>
						</g>
						<g>
							<g>
								<g>
									<path class="st7" d="M422.4,345.9c0,0,0-0.1,0-0.4c0-0.3,0-0.6,0-1.1c0-1,0-2.4,0-4.1c0-3.6-0.1-8.8-0.1-15.1l0.2,0.2
										c-12.1,0-28.7,0-46.9,0.1c-0.2,0.2,0.3-0.3,0.3-0.3v0v0v0v0v0.1v0.2l0,0.3v0.7l0,1.4c0,0.9,0,1.8,0,2.7c0,1.8,0,3.5,0,5.3
										c0,3.5,0,6.8,0,10.1l-0.2-0.2c13.6,0,25.3,0.1,33.6,0.1c4.1,0,7.5,0.1,9.8,0.1c1.1,0,2,0,2.6,0c0.3,0,0.5,0,0.7,0
										C422.3,345.9,422.4,345.9,422.4,345.9c0,0-0.1,0-0.2,0c-0.2,0-0.4,0-0.7,0c-0.6,0-1.5,0-2.6,0c-2.3,0-5.6,0-9.7,0.1
										c-8.4,0-20.1,0.1-33.8,0.1l-0.2,0l0-0.2c0-3.2,0-6.6,0-10.1c0-1.7,0-3.5,0-5.3c0-0.9,0-1.8,0-2.7l0-1.4v-0.7v-0.3v-0.2
										v-0.1v0v0v0v0c-0.1,0.1,0.5-0.5,0.3-0.3c18.2,0,34.8,0.1,46.9,0.1l0.2,0l0,0.2c0,6.4-0.1,11.6-0.1,15.2c0,1.8,0,3.1,0,4.1
										c0,0.4,0,0.8,0,1.1C422.4,345.8,422.4,346,422.4,345.9z"/>
								</g>
							</g>
							<g>
								<g>
									<path class="st7" d="M400.9,335.6c-0.1,0,0-0.8-0.9-1.4c-0.4-0.3-1.1-0.5-1.7-0.2c-0.6,0.2-1.1,0.9-1.1,1.6
										c0,0.8,0.5,1.4,1.1,1.6c0.6,0.2,1.3,0.1,1.7-0.2C400.9,336.4,400.8,335.5,400.9,335.6c0,0,0.1,0.2,0,0.5
										c0,0.3-0.2,0.8-0.7,1.2c-0.5,0.4-1.3,0.6-2.1,0.4c-0.8-0.3-1.5-1.1-1.5-2.1c0-1,0.7-1.8,1.5-2.1c0.8-0.3,1.6,0,2.1,0.4
										c0.5,0.4,0.7,0.9,0.7,1.2C401,335.4,400.9,335.6,400.9,335.6z"/>
								</g>
							</g>
						</g>
						<g>
							<g>
								<g>
									<path class="st7" d="M422.4,368.8c0,0,0-0.1,0-0.4c0-0.3,0-0.6,0-1.1c0-1,0-2.4,0-4.1c0-3.6-0.1-8.8-0.1-15.1l0.2,0.2
										c-12.1,0-28.7,0-46.9,0.1c-0.2,0.2,0.3-0.3,0.3-0.3v0v0v0v0v0.1v0.2l0,0.3v0.7l0,1.4c0,0.9,0,1.8,0,2.7c0,1.8,0,3.5,0,5.3
										c0,3.5,0,6.8,0,10.1l-0.2-0.2c13.6,0,25.3,0.1,33.6,0.1c4.1,0,7.5,0.1,9.8,0.1c1.1,0,2,0,2.6,0c0.3,0,0.5,0,0.7,0
										C422.3,368.8,422.4,368.8,422.4,368.8c0,0-0.1,0-0.2,0c-0.2,0-0.4,0-0.7,0c-0.6,0-1.5,0-2.6,0c-2.3,0-5.6,0-9.7,0.1
										c-8.4,0-20.1,0.1-33.8,0.1l-0.2,0l0-0.2c0-3.2,0-6.6,0-10.1c0-1.7,0-3.5,0-5.3c0-0.9,0-1.8,0-2.7l0-1.4v-0.7v-0.3v-0.2
										v-0.1v0v0v0v0c-0.1,0.1,0.5-0.5,0.3-0.3c18.2,0,34.8,0.1,46.9,0.1l0.2,0l0,0.2c0,6.4-0.1,11.6-0.1,15.2c0,1.8,0,3.1,0,4.1
										c0,0.4,0,0.8,0,1.1C422.4,368.7,422.4,368.8,422.4,368.8z"/>
								</g>
							</g>
							<g>
								<g>
									<path class="st7" d="M400.9,358.4c-0.1,0,0-0.8-0.9-1.4c-0.4-0.3-1.1-0.5-1.7-0.2c-0.6,0.2-1.1,0.9-1.1,1.6
										c0,0.8,0.5,1.4,1.1,1.6c0.6,0.2,1.3,0.1,1.7-0.2C400.9,359.2,400.8,358.4,400.9,358.4c0,0,0.1,0.2,0,0.5
										c0,0.3-0.2,0.8-0.7,1.2c-0.5,0.4-1.3,0.6-2.1,0.4c-0.8-0.3-1.5-1.1-1.5-2.1c0-1,0.7-1.8,1.5-2.1c0.8-0.3,1.6,0,2.1,0.4
										c0.5,0.4,0.7,0.9,0.7,1.2C401,358.2,400.9,358.4,400.9,358.4z"/>
								</g>
							</g>
						</g>
						<g>
							<g>
								<g>
									<path class="st7" d="M422.4,391.6c0,0,0-0.1,0-0.4c0-0.3,0-0.6,0-1.1c0-1,0-2.4,0-4.1c0-3.6-0.1-8.8-0.1-15.1l0.2,0.2
										c-12.1,0-28.7,0-46.9,0.1c-0.2,0.2,0.3-0.3,0.3-0.3v0v0v0v0v0.1v0.2l0,0.3v0.7l0,1.4c0,0.9,0,1.8,0,2.7c0,1.8,0,3.5,0,5.3
										c0,3.5,0,6.8,0,10.1l-0.2-0.2c13.6,0,25.3,0.1,33.6,0.1c4.1,0,7.5,0.1,9.8,0.1c1.1,0,2,0,2.6,0c0.3,0,0.5,0,0.7,0
										C422.3,391.6,422.4,391.6,422.4,391.6c0,0-0.1,0-0.2,0c-0.2,0-0.4,0-0.7,0c-0.6,0-1.5,0-2.6,0c-2.3,0-5.6,0-9.7,0.1
										c-8.4,0-20.1,0.1-33.8,0.1l-0.2,0l0-0.2c0-3.2,0-6.6,0-10.1c0-1.7,0-3.5,0-5.3c0-0.9,0-1.8,0-2.7l0-1.4v-0.7v-0.3V371V371
										v0v0v0v0c-0.1,0.1,0.5-0.5,0.3-0.3c18.2,0,34.8,0.1,46.9,0.1l0.2,0l0,0.2c0,6.4-0.1,11.6-0.1,15.2c0,1.8,0,3.1,0,4.1
										c0,0.4,0,0.8,0,1.1C422.4,391.5,422.4,391.6,422.4,391.6z"/>
								</g>
							</g>
							<g>
								<g>
									<path class="st7" d="M400.9,381.3c-0.1,0,0-0.8-0.9-1.4c-0.4-0.3-1.1-0.5-1.7-0.2c-0.6,0.2-1.1,0.9-1.1,1.6
										c0,0.8,0.5,1.4,1.1,1.6c0.6,0.2,1.3,0.1,1.7-0.2C400.9,382.1,400.8,381.2,400.9,381.3c0,0,0.1,0.2,0,0.5
										c0,0.3-0.2,0.8-0.7,1.2c-0.5,0.4-1.3,0.6-2.1,0.4c-0.8-0.3-1.5-1.1-1.5-2.1c0-1,0.7-1.8,1.5-2.1c0.8-0.3,1.6,0,2.1,0.4
										c0.5,0.4,0.7,0.9,0.7,1.2C401,381.1,400.9,381.3,400.9,381.3z"/>
								</g>
							</g>
						</g>
					</g>
					<g>
						<polygon class="st7" points="284.7,456.1 199.1,456 199.1,320.6 284.7,320.6 						"/>
					</g>
					<g>
						<rect x="195" y="315.4" class="st7" width="307.7" height="7.1"/>
					</g>
					<g>
						<rect x="199.1" y="322.5" class="st7" width="9.5" height="143.7"/>
					</g>
					<g>
						<rect x="488.5" y="322.5" class="st7" width="9.5" height="143.7"/>
					</g>
					<g>
						<rect x="428.3" y="322.5" class="st7" width="9.5" height="143.7"/>
					</g>
				</g>
				<g>
					<g>
						<path class="st8" d="M238.3,315.4c0,0.1-9.2,0.3-20.5,0.3c-11.3,0-20.5-0.1-20.5-0.3s9.2-0.3,20.5-0.3
							C229.1,315.1,238.3,315.2,238.3,315.4z"/>
					</g>
				</g>
			</g>
			<g>
				<g>
					<g>
						<g>
							<g>
								<g>
									<g>
										<g>
											<path class="st9" d="M328.2,459.2l0.2-10.3l-19.2-0.6l-0.5,15l1.2,0.1c5.3,0.5,27,1.9,30.6,1
												C344.5,463.3,328.2,459.2,328.2,459.2z"/>
										</g>
									</g>
								</g>
							</g>
							<g class="st10">
								<g>
									<g>
										<path class="st2" d="M336.2,461.5c0,0,5.7,1.8,4.9,2.7c-0.7,0.9-22.7,0.2-32.4-0.9l0-0.4l25.6,1
											C334.4,463.9,335,461.5,336.2,461.5z"/>
									</g>
								</g>
							</g>
							<g>
								<g>
									<g>
										<g>
											<path class="st7" d="M308.4,462.9c0,0,0.1,0,0.3,0c0.3,0,0.6,0.1,0.9,0.1c0.9,0.1,2.1,0.2,3.5,0.3c3,0.2,7,0.4,11.5,0.6
												c4.5,0.1,8.6,0.2,11.6,0.2c1.4,0,2.6,0,3.5,0c0.4,0,0.7,0,1,0c0.2,0,0.3,0,0.3,0c0,0-0.1,0-0.3,0c-0.3,0-0.6,0-1,0
												c-1,0-2.1,0-3.5,0c-3,0-7-0.1-11.6-0.2c-4.5-0.1-8.6-0.3-11.5-0.5c-1.4-0.1-2.5-0.1-3.5-0.2c-0.4,0-0.7,0-1,0
												C308.6,462.9,308.4,462.9,308.4,462.9z"/>
										</g>
									</g>
								</g>
							</g>
							<g>
								<g>
									<g>
										<g>
											<path class="st7" d="M334.4,464.2c0.1,0,0.2-0.8,0.7-1.6c0.5-0.8,1.3-1.2,1.2-1.3c0-0.1-0.8,0.3-1.4,1.2
												C334.3,463.3,334.3,464.2,334.4,464.2z"/>
										</g>
									</g>
								</g>
							</g>
							<g>
								<g>
									<g>
										<g>
											<path class="st7" d="M328.8,461.2c0.1,0,0.3-0.3,0.6-0.7c0.3-0.4,0.5-0.8,0.4-0.9c-0.1,0-0.3,0.3-0.6,0.7
												C328.9,460.7,328.7,461.1,328.8,461.2z"/>
										</g>
									</g>
								</g>
							</g>
							<g>
								<g>
									<g>
										<g>
											<path class="st7" d="M327.2,460.3c0,0,0.4-0.1,0.7-0.4c0.3-0.3,0.6-0.6,0.5-0.6c0,0-0.4,0.1-0.7,0.4
												C327.4,460,327.2,460.2,327.2,460.3z"/>
										</g>
									</g>
								</g>
							</g>
							<g>
								<g>
									<g>
										<g>
											<path class="st7" d="M326.3,458.4c0,0.1,0.4,0.1,1,0.2c0.6,0,1,0,1-0.1c0-0.1-0.4-0.1-1-0.2
												C326.8,458.3,326.3,458.4,326.3,458.4z"/>
										</g>
									</g>
								</g>
							</g>
							<g>
								<g>
									<g>
										<g>
											<path class="st7" d="M326,457.1c0,0.1,0.5,0.3,1.1,0.4c0.7,0.1,1.2-0.1,1.2-0.1c0-0.1-0.5,0-1.1-0.1
												C326.5,457.2,326,457.1,326,457.1z"/>
										</g>
									</g>
								</g>
							</g>
							<g>
								<g>
									<g>
										<g>
											<path class="st7" d="M329.5,459.5c0,0,0.5,0.1,1.2,0c0.4,0,0.8-0.1,1.3-0.2c0.2-0.1,0.5-0.1,0.8-0.3
												c0.1-0.1,0.3-0.2,0.3-0.4c0.1-0.2,0-0.4-0.2-0.5c-1.2-0.6-2.4,0-2.8,0.6c-0.3,0.3-0.4,0.6-0.4,0.8
												c-0.1,0.2-0.1,0.3,0,0.3c0,0,0.1-0.5,0.6-1c0.2-0.3,0.6-0.5,1.1-0.7c0.4-0.1,1.1-0.1,1.5,0.1c0.2,0.2,0.1,0.4-0.1,0.5
												c-0.2,0.1-0.5,0.2-0.7,0.3c-0.5,0.1-0.9,0.2-1.3,0.3C329.9,459.5,329.5,459.5,329.5,459.5z"/>
										</g>
									</g>
								</g>
							</g>
							<g>
								<g>
									<g>
										<g>
											<path class="st7" d="M329.8,459.6c0,0,0.2-0.3,0.2-0.9c0-0.3-0.1-0.6-0.3-0.9c-0.2-0.3-0.5-0.7-1-0.7
												c-0.3,0-0.4,0.3-0.4,0.6c0,0.2,0.1,0.4,0.2,0.6c0.2,0.3,0.4,0.6,0.6,0.8c0.4,0.4,0.7,0.5,0.7,0.5c0,0-0.2-0.2-0.6-0.6
												c-0.2-0.2-0.3-0.5-0.5-0.8c-0.2-0.3-0.3-0.7,0-0.8c0.3,0,0.6,0.3,0.8,0.6c0.2,0.3,0.3,0.6,0.3,0.8
												C329.9,459.2,329.8,459.6,329.8,459.6z"/>
										</g>
									</g>
								</g>
							</g>
							<g>
								<g>
									<g>
										<g>
											<path class="st7" d="M309,457.6c0,0,0.6,0,1.4,0.1c0.9,0.1,2,0.5,3.1,1.4c1,0.9,1.6,2,1.9,2.8c0.3,0.8,0.3,1.4,0.3,1.4
												c0,0,0-0.1,0-0.4c0-0.2-0.1-0.6-0.2-1c-0.2-0.9-0.8-2-1.9-2.9c-1.1-0.9-2.3-1.3-3.2-1.4c-0.4,0-0.8,0-1.1,0
												C309.1,457.6,309,457.6,309,457.6z"/>
										</g>
									</g>
								</g>
							</g>
							<g>
								<g>
									<g>
										<g>
											<path class="st7" d="M311.2,449.7c-0.1,0-0.2,1.8-0.3,3.9c-0.1,2.2-0.1,4-0.1,4c0.1,0,0.2-1.8,0.3-3.9
												C311.3,451.5,311.3,449.7,311.2,449.7z"/>
										</g>
									</g>
								</g>
							</g>
							<g>
								<g>
									<g>
										<g>
											<path class="st7" d="M318.2,461.6c0,0.1,1.2,0.3,2.8,0.4c1.6,0.1,2.8-0.1,2.8-0.1c0-0.1-1.3,0-2.8-0.1
												C319.4,461.7,318.2,461.5,318.2,461.6z"/>
										</g>
									</g>
								</g>
							</g>
							<g>
								<g>
									<g>
										<g>
											<path class="st7" d="M314.4,461.5c0,0,0.1,0.3,0.2,0.6c0.1,0.3,0.2,0.6,0.2,0.5c0.1,0,0.1-0.3,0-0.6
												C314.7,461.6,314.4,461.4,314.4,461.5z"/>
										</g>
									</g>
								</g>
							</g>
							<g>
								<g>
									<g>
										<g>
											<path class="st7" d="M313,459.7c0,0,0.1,0.2,0.3,0.5c0.2,0.2,0.4,0.3,0.4,0.3c0,0-0.1-0.2-0.3-0.5
												C313.3,459.7,313.1,459.6,313,459.7z"/>
										</g>
									</g>
								</g>
							</g>
							<g>
								<g>
									<g>
										<g>
											<path class="st7" d="M311,458.8c0,0.1,0.3,0.1,0.5,0.2c0.3,0.1,0.5,0.3,0.5,0.2c0.1,0-0.1-0.3-0.4-0.4
												C311.3,458.6,311,458.7,311,458.8z"/>
										</g>
									</g>
								</g>
							</g>
							<g>
								<g>
									<g>
										<g>
											<path class="st7" d="M309.6,458.4c0,0.1,0.1,0.2,0.2,0.2c0.2,0.1,0.3,0.1,0.3,0c0-0.1-0.1-0.2-0.2-0.2
												C309.8,458.3,309.6,458.3,309.6,458.4z"/>
										</g>
									</g>
								</g>
							</g>
						</g>
					</g>
					<g class="st11">
						<polygon points="309,457.1 328.3,457.4 328.3,455.1 308.9,455.9 						"/>
					</g>
				</g>
				<g>
					<g>
						<g>
							<g>
								<g>
									<g>
										<g>
											<path class="st9" d="M358.6,460.8l0-10.3l-19.3-0.1l-0.1,15l1.2,0.1c5.3,0.3,27,1.2,30.6,0.2
												C374.9,464.5,358.6,460.8,358.6,460.8z"/>
										</g>
									</g>
								</g>
							</g>
							<g class="st10">
								<g>
									<g>
										<path class="st2" d="M366.6,462.9c0,0,5.7,1.7,5,2.6c-0.7,0.9-22.7,0.8-32.4,0l0-0.4l25.6,0.3
											C364.9,465.3,365.5,462.9,366.6,462.9z"/>
									</g>
								</g>
							</g>
							<g>
								<g>
									<g>
										<g>
											<path class="st7" d="M338.9,465c0,0,0.1,0,0.3,0c0.3,0,0.6,0,1,0.1c1,0,2.1,0.1,3.5,0.2c3,0.1,7,0.2,11.6,0.3
												c4.5,0,8.6,0,11.6-0.1c1.4-0.1,2.5-0.1,3.5-0.1c0.4,0,0.7,0,1-0.1c0.2,0,0.3,0,0.3,0c0,0-0.1,0-0.3,0c-0.3,0-0.6,0-1,0
												c-1,0-2.1,0-3.5,0.1c-3,0-7,0.1-11.6,0.1c-4.5,0-8.6-0.1-11.6-0.2c-1.4,0-2.5-0.1-3.5-0.1c-0.4,0-0.7,0-1,0
												C339,465,338.9,465,338.9,465z"/>
										</g>
									</g>
								</g>
							</g>
							<g>
								<g>
									<g>
										<g>
											<path class="st7" d="M364.9,465.6c0.1,0,0.1-0.8,0.7-1.7c0.5-0.9,1.2-1.3,1.2-1.3c0-0.1-0.8,0.3-1.4,1.2
												C364.8,464.8,364.8,465.7,364.9,465.6z"/>
										</g>
									</g>
								</g>
							</g>
							<g>
								<g>
									<g>
										<g>
											<path class="st7" d="M359.2,462.7c0.1,0,0.3-0.3,0.6-0.7c0.3-0.4,0.5-0.8,0.4-0.9c-0.1,0-0.3,0.3-0.6,0.7
												C359.3,462.3,359.1,462.7,359.2,462.7z"/>
										</g>
									</g>
								</g>
							</g>
							<g>
								<g>
									<g>
										<g>
											<path class="st7" d="M357.6,461.9c0,0,0.3-0.2,0.7-0.5c0.3-0.3,0.6-0.6,0.5-0.6c0,0-0.3,0.2-0.7,0.4
												C357.8,461.6,357.6,461.9,357.6,461.9z"/>
										</g>
									</g>
								</g>
							</g>
							<g>
								<g>
									<g>
										<g>
											<path class="st7" d="M356.7,460.1c0,0.1,0.4,0.1,1,0.1c0.6,0,1,0,1-0.1c0-0.1-0.4-0.1-1-0.1
												C357.1,460,356.7,460,356.7,460.1z"/>
										</g>
									</g>
								</g>
							</g>
							<g>
								<g>
									<g>
										<g>
											<path class="st7" d="M356.3,458.8c0,0.1,0.5,0.3,1.1,0.3c0.7,0.1,1.2-0.1,1.2-0.1c0-0.1-0.5,0-1.1-0.1
												C356.8,458.9,356.3,458.7,356.3,458.8z"/>
										</g>
									</g>
								</g>
							</g>
							<g>
								<g>
									<g>
										<g>
											<path class="st7" d="M359.8,461.1c0,0,0.5,0.1,1.2,0c0.4,0,0.8-0.1,1.3-0.3c0.2-0.1,0.5-0.1,0.8-0.3
												c0.1-0.1,0.3-0.2,0.3-0.4c0.1-0.2,0-0.4-0.2-0.5c-1.2-0.6-2.4,0-2.8,0.7c-0.2,0.3-0.4,0.6-0.4,0.8c-0.1,0.2,0,0.3,0,0.3
												c0,0,0.1-0.5,0.6-1.1c0.2-0.3,0.6-0.5,1.1-0.7c0.4-0.1,1.1-0.2,1.5,0.1c0.2,0.1,0.1,0.4-0.1,0.5
												c-0.2,0.1-0.5,0.2-0.7,0.3c-0.5,0.2-0.9,0.3-1.3,0.3C360.3,461,359.8,461,359.8,461.1z"/>
										</g>
									</g>
								</g>
							</g>
							<g>
								<g>
									<g>
										<g>
											<path class="st7" d="M360.2,461.1c0,0,0.2-0.3,0.1-0.9c0-0.3-0.1-0.6-0.3-0.9c-0.2-0.3-0.5-0.7-1-0.6
												c-0.3,0-0.4,0.4-0.4,0.6c0,0.2,0.1,0.4,0.2,0.6c0.2,0.3,0.4,0.6,0.6,0.8c0.4,0.4,0.7,0.5,0.7,0.5c0,0-0.2-0.2-0.6-0.6
												c-0.2-0.2-0.4-0.4-0.5-0.7c-0.2-0.3-0.3-0.7,0-0.8c0.3,0,0.6,0.3,0.8,0.5c0.2,0.3,0.3,0.6,0.3,0.8
												C360.2,460.8,360.1,461.1,360.2,461.1z"/>
										</g>
									</g>
								</g>
							</g>
							<g>
								<g>
									<g>
										<g>
											<path class="st7" d="M339.3,459.7c0,0,0.6-0.1,1.4,0.1c0.9,0.1,2.1,0.5,3.1,1.3c1,0.8,1.6,1.9,1.9,2.7
												c0.3,0.8,0.3,1.4,0.4,1.4c0,0,0-0.1,0-0.4c0-0.2-0.1-0.6-0.2-1c-0.2-0.9-0.9-2-1.9-2.9c-1.1-0.9-2.3-1.2-3.2-1.3
												c-0.4,0-0.8,0-1.1,0C339.5,459.7,339.3,459.7,339.3,459.7z"/>
										</g>
									</g>
								</g>
							</g>
							<g>
								<g>
									<g>
										<g>
											<path class="st7" d="M341.4,451.7c-0.1,0-0.1,1.8-0.2,4c0,2.2,0,4,0,4c0.1,0,0.1-1.8,0.2-4
												C341.4,453.5,341.4,451.7,341.4,451.7z"/>
										</g>
									</g>
								</g>
							</g>
							<g>
								<g>
									<g>
										<g>
											<path class="st7" d="M348.6,463.5c0,0.1,1.2,0.3,2.8,0.3c1.6,0,2.8-0.2,2.8-0.2c0-0.1-1.3,0-2.8,0
												C349.9,463.5,348.6,463.4,348.6,463.5z"/>
										</g>
									</g>
								</g>
							</g>
							<g>
								<g>
									<g>
										<g>
											<path class="st7" d="M344.8,463.4c0,0,0.1,0.3,0.2,0.6c0.1,0.3,0.2,0.5,0.3,0.5c0.1,0,0.1-0.3,0-0.6
												C345.1,463.6,344.9,463.4,344.8,463.4z"/>
										</g>
									</g>
								</g>
							</g>
							<g>
								<g>
									<g>
										<g>
											<path class="st7" d="M343.4,461.7c0,0,0.1,0.2,0.3,0.4c0.2,0.2,0.4,0.3,0.4,0.3c0,0-0.1-0.2-0.3-0.4
												C343.7,461.7,343.5,461.6,343.4,461.7z"/>
										</g>
									</g>
								</g>
							</g>
							<g>
								<g>
									<g>
										<g>
											<path class="st7" d="M341.4,460.8c0,0.1,0.3,0.1,0.6,0.2c0.3,0.1,0.5,0.3,0.5,0.2c0.1,0-0.1-0.3-0.5-0.4
												C341.7,460.7,341.4,460.8,341.4,460.8z"/>
										</g>
									</g>
								</g>
							</g>
							<g>
								<g>
									<g>
										<g>
											<path class="st7" d="M339.9,460.5c0,0.1,0.1,0.2,0.2,0.2c0.2,0.1,0.3,0.1,0.3,0c0-0.1-0.1-0.2-0.2-0.2
												C340.1,460.4,340,460.4,339.9,460.5z"/>
										</g>
									</g>
								</g>
							</g>
						</g>
					</g>
					<g class="st11">
						<polygon points="339.4,459.2 358.6,459 358.6,456.7 339.2,458 						"/>
					</g>
				</g>
				<g>
					<g>
						<path class="st12" d="M316.1,284.8l7.7,23.2c2.1,6.3,7.6,7.3,14.2,7.3h42.9v-9.6l-39.2-5.6l-9.3-23.9L316.1,284.8z"/>
					</g>
					<g>
						<g>
							<path class="st12" d="M385.6,303.7l3.4-1.6c0,0,3.7-7.1,4.5-6.8c0.8,0.3,1.1,2.4-0.4,5.6l4.5-1.3c0,0,9.8,4.5,9.4,5.1
								c-0.4,0.6-1.2,2.1-3.4,1c-2.1-1.1-4.9-2.4-4.9-2.4l-5.3,1.5l6.8,0.9l6.4,5.8c0,0-2.1,1.6-3.9-0.1l-16.6,3.6l-5.2,0.3v-9.6
								L385.6,303.7z"/>
						</g>
						<g>
							<g>
								<path class="st13" d="M402.7,311.5c-0.1,0-0.4-0.4-1-1.1c-0.3-0.3-0.7-0.7-1.2-0.9c-0.5-0.3-1.1-0.4-1.8-0.5
									c-2.8-0.3-5-0.7-5-0.9c0-0.1,2.3,0,5.1,0.3c0.7,0.1,1.4,0.2,2,0.6c0.5,0.3,1,0.7,1.2,1.1
									C402.6,310.9,402.7,311.5,402.7,311.5z"/>
							</g>
						</g>
						<g>
							<g>
								<path class="st13" d="M400.1,312.2c-0.1,0-0.1-0.3-0.6-0.4c-0.5-0.1-1.2-0.2-2-0.3c-1.6-0.2-2.9-0.1-2.9-0.3
									c0-0.1,1.3-0.4,3-0.2c0.8,0.1,1.5,0.2,2.1,0.4c0.3,0.1,0.5,0.4,0.5,0.5C400.2,312.1,400.1,312.2,400.1,312.2z"/>
							</g>
						</g>
					</g>
				</g>
				<g>
					<g>
						<g>
							<g>
								<g>
									<g>
										<g>
											<path class="st12" d="M279.9,189.3l-2.3,47.2l20.2,1.9l1.1-11.4c0,0,7.1,1.8,9.3-4.8c1.4-4.2,2.6-37.2,2.6-37.2
												L279.9,189.3z"/>
										</g>
									</g>
									<g>
										<g>
											<path class="st7" d="M312.5,190.4c0.6,4.4-5.6,7-5.6,7l-1.1,10.4c-0.9-0.1-2.9,0-2.9,0c0.5-4.9-5.8-3.9-6.4-0.6
												c-0.6,3.2,3,5.4,3,5.4c-2.5,3.9-3.6,5.9-7.1,9.6c-3.9,3.9-6,4.2-10,4.1l-4.4-0.2c0,0-1.6-3.8-2.7-12.7
												c-0.6-4.3-3.9-9.9-2.9-16.9c2.7-19.8,21.7-17.7,21.7-17.7C303.8,179.1,311.2,180.2,312.5,190.4z"/>
										</g>
									</g>
								</g>
							</g>
						</g>
						<g>
							<path class="st7" d="M298,179.4c4.3,0.1,8.7,0.4,12.5,2.5c3.8,2.1,6.7,6.3,5.9,10.5c-0.7,0.1-1.4,0.3-2.1,0.4
								c-0.3-0.5-0.6-1.1-0.9-1.6c0,0.8,0,1.7,0,2.5c-1.3,0.4-2.5,0.7-3.8,1.1c-0.6-3.2-1.7-6.3-3.3-9.1"/>
						</g>
					</g>
					<g>
						<g>
							<path class="st8" d="M280.7,201.1c0,0-0.2-0.2-0.3-0.7c-0.2-0.5-0.4-1.2-0.5-2.1c-0.3-1.8-0.4-4.5,0.5-7.3
								c0.9-2.8,2.4-4.9,3.7-6.3c0.7-0.7,1.2-1.2,1.7-1.5c0.4-0.3,0.7-0.5,0.7-0.4c0.1,0.1-0.9,0.8-2.1,2.1
								c-1.2,1.4-2.6,3.5-3.5,6.2c-0.8,2.7-0.8,5.2-0.6,7.1C280.4,200,280.8,201.1,280.7,201.1z"/>
						</g>
					</g>
					<g>
						<g>
							<path class="st8" d="M284.6,199.5c-0.1,0-0.4-0.9-0.8-2.4c-0.4-1.5-0.6-3.7-0.4-6.1c0.2-2.4,0.8-4.5,1.4-6
								c0.6-1.5,1.2-2.3,1.2-2.2c0.2,0.1-1.7,3.5-2.1,8.3C283.5,195.7,284.8,199.4,284.6,199.5z"/>
						</g>
					</g>
					<g>
						<g>
							<path class="st8" d="M310.4,192.1c-0.1,0-0.3-1.2-1.1-3c-0.8-1.8-2.4-4.1-4.9-5.8c-2.5-1.7-5.2-2.3-7.2-2.4
								c-2-0.1-3.2,0.2-3.2,0.1c0,0,0.3-0.1,0.8-0.3c0.6-0.1,1.4-0.2,2.4-0.2c2,0,4.9,0.5,7.5,2.3c2.6,1.8,4.2,4.2,4.9,6.1
								c0.4,0.9,0.6,1.7,0.7,2.3C310.4,191.8,310.5,192.1,310.4,192.1z"/>
						</g>
					</g>
					<g>
						<g>
							<path class="st7" d="M281.3,175.6c0-0.1,1.6,0.3,2.9,1.7c1.4,1.4,1.8,2.9,1.7,2.9c-0.1,0.1-0.8-1.3-2.1-2.5
								C282.6,176.4,281.2,175.7,281.3,175.6z"/>
						</g>
					</g>
					<g>
						<g>
							<path class="st8" d="M286,175.6c0.1,0.1-0.2,1.1-0.1,2.4c0,1.3,0.4,2.3,0.3,2.4c-0.1,0.1-0.8-0.9-0.8-2.4
								C285.3,176.6,285.9,175.5,286,175.6z"/>
						</g>
					</g>
				</g>
				<g>
					<g>
						<g>
							<g>
								<g>
									<g>
										<g>
											<path class="st9" d="M312.4,279.7l3.3,11.2l20.9-9.5c-0.8-2.3-4.2-12.8-10.8-29.3c-3.7-9.2-11.9-15.9-21.7-17.5
												c-6.9-1.1-14.3-2-20-2c-11.7,0.1-29,7.5-31.3,19c-1.8,8.8-0.1,24.3-0.1,43.1l1.5,36l60.2,2L312.4,279.7z"/>
										</g>
									</g>
								</g>
							</g>
						</g>
						<g class="st11">
							<g>
								<path d="M252.7,286.5c7.3,1.5,14.8,0,22.3-0.5c4.5-0.3,9.5-0.8,13.1,2c2.8,2.2,4,5.9,4.8,9.4c3.1,13.3,3.7,22.3,4.4,35.9
									l-36.2,2.2L252.7,286.5z"/>
							</g>
						</g>
					</g>
					<g>
						<g>
							<path class="st4" d="M324.1,248.7c0,0.1-15.8,0.3-35.3,0.3c-19.5,0-35.3-0.1-35.3-0.3c0-0.1,15.8-0.3,35.3-0.3
								C308.3,248.4,324.1,248.5,324.1,248.7z"/>
						</g>
					</g>
					<g>
						<g>
							<path class="st4" d="M328.5,258.8c0,0.1-17.2,0.3-38.3,0.3c-21.2,0-38.4-0.1-38.4-0.3c0-0.1,17.2-0.3,38.4-0.3
								C311.3,258.5,328.5,258.6,328.5,258.8z"/>
						</g>
					</g>
					<g>
						<g>
							<path class="st4" d="M334,271.5c0,0.1-18.3,0.3-40.9,0.3c-22.6,0-40.9-0.1-40.9-0.3c0-0.1,18.3-0.3,40.9-0.3
								C315.7,271.2,334,271.3,334,271.5z"/>
						</g>
					</g>
					<g>
						<g>
							<path class="st4" d="M312,285.1c0,0.1-5.7,0.3-12.8,0.3c-7.1,0-12.8-0.1-12.8-0.3s5.7-0.3,12.8-0.3
								C306.3,284.9,312,285,312,285.1z"/>
						</g>
					</g>
					<g>
						<g>
							<path class="st4" d="M313.2,300c0,0.1-6,0.2-13.4,0.2c-7.4-0.1-13.4-0.2-13.4-0.4c0-0.1,6-0.2,13.4-0.2
								C307.2,299.7,313.2,299.8,313.2,300z"/>
						</g>
					</g>
					<g>
						<g>
							<path class="st4" d="M313.8,312.1c0,0-0.4,0-1.1,0c-0.8,0-1.7,0-2.9-0.1c-2.4-0.1-5.8-0.1-9.5-0.1c-3.7,0-7,0.1-9.5,0.1
								c-1.1,0-2.1,0-2.9,0.1c-0.7,0-1.1,0-1.1,0c0,0,0.4-0.1,1-0.2c0.7-0.1,1.7-0.1,2.9-0.2c2.4-0.1,5.8-0.3,9.5-0.3
								c3.7,0,7,0.1,9.5,0.3c1.2,0.1,2.2,0.1,2.9,0.2C313.4,312,313.8,312,313.8,312.1z"/>
						</g>
					</g>
					<g>
						<g>
							<path class="st4" d="M313.6,321.8c0,0.1-5.9,0.3-13.2,0.3c-7.3,0-13.2-0.1-13.2-0.3s5.9-0.3,13.2-0.3
								C307.7,321.5,313.6,321.7,313.6,321.8z"/>
						</g>
					</g>
					<g>
						<g>
							<path class="st4" d="M315.3,238.8c0,0.1-11.6,0.3-25.9,0.3c-14.3,0-25.9-0.1-25.9-0.3s11.6-0.3,25.9-0.3
								C303.8,238.5,315.3,238.6,315.3,238.8z"/>
						</g>
					</g>
					<g>
						<g>
							<path class="st7" d="M314,240.7c0,0.1-0.6,0.1-1.6,0.5c-1,0.4-2.3,1.3-3.5,2.8c-1.1,1.5-1.9,3.7-2.1,6.3
								c-0.2,2.5,0.2,5.3,0.6,8.2c0.9,5.8,2.3,11,3.4,14.7c0.5,1.8,0.9,3.3,1.2,4.4c0.3,1,0.4,1.6,0.4,1.6c0,0-0.2-0.6-0.6-1.6
								c-0.3-1-0.8-2.5-1.4-4.4c-1.1-3.7-2.6-8.9-3.5-14.8c-0.4-2.9-0.8-5.8-0.6-8.4c0.2-2.6,1-4.9,2.3-6.5c1.2-1.6,2.7-2.4,3.7-2.8
								c0.5-0.2,0.9-0.3,1.2-0.3C313.8,240.6,314,240.6,314,240.7z"/>
						</g>
					</g>
					<g>
						<g>
							<path class="st7" d="M336,278.6c0,0.1-1.1,0.7-2.9,1.7c-1.9,1-4.5,2.3-7.4,3.6c-2.9,1.3-5.6,2.4-7.6,3.2
								c-2,0.7-3.2,1.2-3.2,1.1c0-0.1,1.2-0.6,3.1-1.4c1.9-0.8,4.6-2,7.5-3.3c2.9-1.3,5.5-2.5,7.4-3.4
								C334.8,279,336,278.5,336,278.6z"/>
						</g>
					</g>
				</g>
				<g>
					<g>
						<path class="st7" d="M272.8,331.4l71.9,2.5c11.7,0.4,20.9,10.1,20.7,21.8l-3,102.7l-27.8-0.9l2.1-96.1l-63.9-1.7V331.4z"/>
					</g>
					<g>
						<path class="st7" d="M243.1,331.4l71.9,2.5c11.7,0.4,20.9,10.1,20.7,21.8l-3,102.7l-28.1-2.2l2.4-94.8l-63.9-1.7V331.4z"/>
					</g>
				</g>
				<g>
					<g>
						<g>
							<g>
								<rect x="289.8" y="368.7" class="st8" width="7.1" height="84.7"/>
							</g>
							<g>
								<g>
									<path class="st8" d="M230.5,286.4v62.4c0,8.2,6.6,14.8,14.8,14.8h41.5v-77.2c0-3.6-3-6.6-6.6-6.6h-43.1
										C233.5,279.8,230.5,282.8,230.5,286.4z"/>
								</g>
								<g>
									<path class="st8" d="M342.7,368.7H241.6l0,0c0-6.1,4.9-11,11-11h79.2C337.8,357.7,342.7,362.6,342.7,368.7L342.7,368.7z"/>
								</g>
							</g>
							<g>
								<g>
									<path class="st7" d="M286.8,356.2c0,0,0,0.2,0,0.5c0,0.3,0,0.8-0.2,1.4c-0.2,1.2-1,2.9-2.7,4.2c-0.9,0.7-1.9,1.2-3.2,1.4
										c-1.3,0.2-2.6,0.1-4,0.1c-2.8,0-5.9,0-9.1,0c-6.4,0-12.3,0-16.5-0.1c-2,0-3.7-0.1-5-0.1c-0.5,0-1,0-1.4,0
										c-0.3,0-0.5,0-0.5-0.1c0,0,0.2,0,0.5-0.1c0.4,0,0.8,0,1.4-0.1c1.3,0,3-0.1,5-0.1c4.2-0.1,10.1-0.1,16.5-0.1
										c3.2,0,6.3,0,9.1,0c1.4,0,2.7,0.1,3.9-0.1c1.2-0.2,2.2-0.7,3.1-1.3c1.7-1.2,2.4-2.9,2.7-4
										C286.8,356.9,286.8,356.2,286.8,356.2z"/>
								</g>
							</g>
							<g>
								<g>
									<path class="st7" d="M299.6,368.9c0,0.1-2.8,0.3-6.2,0.3c-3.4,0-6.2-0.1-6.2-0.3c0-0.1,2.8-0.3,6.2-0.3
										C296.8,368.6,299.6,368.7,299.6,368.9z"/>
								</g>
							</g>
						</g>
						<g>
							<g>
								<path class="st8" d="M330.3,364.1c-0.1,0-0.3-1-0.6-3c-0.3-1.9-0.8-4.7-1.3-8.2c-0.6-3.4-0.9-7.6-2.8-11.7
									c-1-2.1-2.2-4.1-3.8-6c-1.6-1.9-3.5-3.6-5.6-5.1c-2.2-1.5-4.5-2.6-6.8-3.3c-2.3-0.7-4.7-1.2-7-1.2
									c-4.6-0.1-8.8-0.1-12.2-0.2c-3.5,0-6.3-0.1-8.3-0.2c-1.9-0.1-3-0.1-3-0.2s1.1-0.1,3-0.2c1.9-0.1,4.8-0.1,8.3-0.2
									c3.5,0,7.6-0.1,12.3-0.1c2.3,0,4.8,0.5,7.2,1.2c2.5,0.7,4.9,1.9,7.1,3.4c2.2,1.5,4.2,3.3,5.8,5.3c1.6,2,2.9,4.1,3.8,6.3
									c0.2,0.5,0.4,1.1,0.6,1.6c0.1,0.3,0.2,0.5,0.3,0.8c0.1,0.3,0.2,0.5,0.2,0.8c0.1,0.5,0.3,1.1,0.4,1.6
									c0.1,0.5,0.2,1.1,0.3,1.6c0.4,2,0.5,3.9,0.8,5.7c0.4,3.5,0.8,6.3,1,8.2C330.3,363.1,330.4,364.1,330.3,364.1z"/>
							</g>
						</g>
					</g>
					<g>
						<path class="st8" d="M324.3,461h-1c0-16.6-13.5-30.1-30.1-30.1c-16.6,0-30.1,13.5-30.1,30.1h-1c0-17.1,13.9-31.1,31.1-31.1
							C310.4,430,324.3,443.9,324.3,461z"/>
					</g>
					<g>
						<path class="st7" d="M267.3,462.6c0,2.6-2.1,4.7-4.7,4.7c-2.6,0-4.7-2.1-4.7-4.7c0-2.6,2.1-4.7,4.7-4.7
							C265.2,457.9,267.3,460,267.3,462.6z"/>
					</g>
					<g>
						<path class="st7" d="M328.7,461.9c0,2.6-2.1,4.7-4.7,4.7c-2.6,0-4.7-2.1-4.7-4.7c0-2.6,2.1-4.7,4.7-4.7
							C326.6,457.3,328.7,459.4,328.7,461.9z"/>
					</g>
					<g>
						<g>
							<path class="st8" d="M324,453.4c0,0.1-13.5,0.3-30.2,0.3c-16.7,0-30.2-0.1-30.2-0.3s13.5-0.3,30.2-0.3
								C310.5,453.1,324,453.2,324,453.4z"/>
						</g>
					</g>
				</g>
			</g>
		</g>
	</g>
</g>
<g id="Plants">
	<g>
		<g>
			<g>
				<g>
					<path class="st9" d="M220.8,258.8c1.5,0.9,2.5,2.5,2.9,4.2c0.4,1.7,0.2,3.5-0.2,5.2c-0.8,3.3-3.1,6.4-5.4,8.8
						c-2.5-2.8-2.7-7.1-2.6-9.3C215.6,264.2,217.9,257.9,220.8,258.8"/>
				</g>
			</g>
			<g>
				<g>
					<path class="st9" d="M220.8,282.9c-0.2-1.9,0.8-3.9,2.4-5c1.6-1.1,3.7-1.4,5.6-1.1c0.9,0.2,1.8,0.5,2.2,1.3
						c0.4,0.7,0.2,1.7-0.2,2.4c-0.5,0.7-1.2,1.2-2,1.5C226.2,283.3,223.4,284,220.8,282.9"/>
				</g>
			</g>
			<g>
				<g>
					<g>
						<path class="st7" d="M216.5,290.2c0,0,0.2-0.8,0.6-2.1c0.2-0.7,0.6-1.4,1.1-2.2c0.5-0.8,1-1.6,1.7-2.4
							c1.4-1.6,3.1-2.7,4.4-3.2c0.7-0.2,1.2-0.4,1.6-0.4c0.4,0,0.6,0,0.6,0c0,0.1-0.8,0.2-2.1,0.7c-1.2,0.5-2.8,1.6-4.2,3.2
							c-0.7,0.8-1.2,1.6-1.7,2.4c-0.5,0.7-0.9,1.4-1.2,2.1C216.9,289.4,216.6,290.2,216.5,290.2z"/>
					</g>
				</g>
			</g>
			<g>
				<g>
					<g>
						<path class="st7" d="M219.5,263.7c0,0,0,0.4,0,1.1c0,0.7-0.1,1.8-0.2,3.1c-0.2,2.6-0.5,6.2-0.9,10.1
							c-0.4,3.9-0.9,7.5-1.3,10.1c-0.2,1.3-0.4,2.3-0.5,3c-0.1,0.7-0.2,1.1-0.2,1.1c0,0,0-0.4,0.1-1.1c0.1-0.8,0.2-1.8,0.4-3
							c0.3-2.6,0.8-6.1,1.2-10.1c0.4-3.9,0.8-7.4,1-10.1c0.1-1.2,0.2-2.3,0.3-3.1C219.4,264.1,219.4,263.7,219.5,263.7z"/>
					</g>
				</g>
			</g>
			<g>
				<g>
					<path class="st9" d="M216.4,283.6c-0.7-4-3.5-7.6-7.3-9.3c-1-0.4-2.2-0.7-3,0c-0.8,0.7-0.6,2-0.2,2.9c1.7,4,6,6.8,10.3,6.7"/>
				</g>
			</g>
			<g>
				<g>
					<g>
						<path class="st7" d="M209.8,277.3c0,0,0.2,0.1,0.5,0.3c0.3,0.2,0.8,0.5,1.4,0.9c1.1,0.8,2.6,2,3.8,3.7c0.6,0.9,1,1.8,1.2,2.7
							c0.2,0.9,0.3,1.7,0.3,2.4c0,0.7-0.1,1.2-0.2,1.6c-0.1,0.4-0.1,0.6-0.2,0.6c-0.1,0,0.1-0.8,0.1-2.2c0-0.7-0.1-1.5-0.3-2.3
							c-0.2-0.8-0.6-1.7-1.2-2.6c-1.1-1.7-2.6-2.9-3.7-3.7C210.5,277.8,209.8,277.3,209.8,277.3z"/>
					</g>
				</g>
			</g>
		</g>
		<g>
			<g>
				<g>
					<path class="st7" d="M216.1,315.4L216.1,315.4c-6.9,0-12.5-5.6-12.5-12.5v-12.5h25v12.5C228.6,309.8,223,315.4,216.1,315.4z"/>
				</g>
			</g>
			<g>
				<g>
					<g>
						<path class="st1" d="M228.6,296.5c0,0-0.1,0.1-0.3,0.4c-0.3,0.3-0.6,0.6-1,0.9c-1,0.8-2.2,1.9-3.8,3.2l-0.1,0.1l-0.1-0.1
							c-2.1-1.3-4.6-2.8-7.2-4.4l0,0l0.2,0c-2.5,1.6-4.8,3.1-6.7,4.4l-0.1,0.1l-0.1-0.1c-1.7-1.3-3.1-2.4-4.1-3.2
							c-0.5-0.4-0.8-0.7-1.1-0.9c-0.3-0.2-0.4-0.3-0.4-0.4c0,0,0.2,0.1,0.4,0.3c0.3,0.2,0.7,0.5,1.2,0.9c1.1,0.8,2.5,1.9,4.2,3.1
							l-0.2,0c2-1.3,4.2-2.8,6.7-4.4l0.1-0.1l0.1,0.1l0,0c2.7,1.6,5.1,3.1,7.2,4.4l-0.2,0c1.6-1.3,2.9-2.3,3.9-3.1
							c0.4-0.3,0.8-0.6,1.1-0.9C228.4,296.6,228.5,296.5,228.6,296.5z"/>
					</g>
				</g>
			</g>
			<g>
				<g>
					<g>
						<path class="st1" d="M228.6,294c0,0-0.1,0.1-0.3,0.4c-0.3,0.3-0.6,0.6-1,0.9c-1,0.8-2.2,1.9-3.8,3.2l-0.1,0.1l-0.1-0.1
							c-2.1-1.3-4.6-2.8-7.2-4.4l0,0l0.2,0c-2.5,1.6-4.8,3.1-6.7,4.4l-0.1,0.1l-0.1-0.1c-1.7-1.3-3.1-2.4-4.1-3.2
							c-0.5-0.4-0.8-0.7-1.1-0.9c-0.3-0.2-0.4-0.3-0.4-0.4c0,0,0.2,0.1,0.4,0.3c0.3,0.2,0.7,0.5,1.2,0.9c1.1,0.8,2.5,1.9,4.2,3.1
							l-0.2,0c2-1.3,4.2-2.8,6.7-4.4l0.1-0.1l0.1,0.1l0,0c2.7,1.6,5.1,3.1,7.2,4.4l-0.2,0c1.6-1.3,2.9-2.3,3.9-3.1
							c0.4-0.3,0.8-0.6,1.1-0.9C228.4,294.1,228.5,294,228.6,294z"/>
					</g>
				</g>
			</g>
			<g>
				<g>
					<g>
						<path class="st1" d="M228.6,299c0,0-0.1,0.1-0.3,0.4c-0.3,0.3-0.6,0.6-1,0.9c-1,0.8-2.2,1.9-3.8,3.2l-0.1,0.1l-0.1-0.1
							c-2.1-1.3-4.6-2.8-7.2-4.4l0,0l0.2,0c-2.5,1.6-4.8,3.1-6.7,4.4l-0.1,0.1l-0.1-0.1c-1.7-1.3-3.1-2.4-4.1-3.2
							c-0.5-0.4-0.8-0.7-1.1-0.9c-0.3-0.2-0.4-0.3-0.4-0.4c0,0,0.2,0.1,0.4,0.3c0.3,0.2,0.7,0.5,1.2,0.9c1.1,0.8,2.5,1.9,4.2,3.1
							l-0.2,0c2-1.3,4.2-2.8,6.7-4.4l0.1-0.1l0.1,0.1l0,0c2.7,1.6,5.1,3.1,7.2,4.4l-0.2,0c1.6-1.3,2.9-2.3,3.9-3.1
							c0.4-0.3,0.8-0.6,1.1-0.9C228.4,299.1,228.5,299,228.6,299z"/>
					</g>
				</g>
			</g>
		</g>
	</g>
	<g>
		<g>
			<g>
				<g>
					<g>
						<g>
							<path class="st9" d="M552.6,344.7c-5.2,0.8-7.5,7.2-7,12.4c0.5,5.2,2.6,10.3,2,15.6c-0.7,6.6-5.7,12.2-6.3,18.9
								c-0.7,7.8,4.8,14.8,6.5,22.5c0.8,3.7,0.7,7.7,2.1,11.3c2.3,6,9.2,9.9,15.6,8.7c6.3-1.1,11.5-7.1,11.6-13.6
								c0.1-6-3.6-11.7-3.1-17.7c0.3-4.4,2.9-8.6,2.4-13c-0.7-5.2-5.5-9-7.2-14c-1.7-5-0.1-10.5-0.7-15.8
								C567.3,350.5,562,344,552.6,344.7"/>
						</g>
					</g>
				</g>
			</g>
			<g>
				<g>
					<g>
						<g>
							<path class="st9" d="M526.1,390.4c-0.9,8.7,3,19,7.5,26.6c4.5,7.5,11.5,13.6,19.6,17c0.9,0.4,2.1,0.7,2.8,0.1
								c0.6-0.5,0.7-1.4,0.7-2.2c0.1-9.2-2.9-18.4-8.4-25.8C542.8,398.6,534.9,393,526.1,390.4"/>
						</g>
					</g>
				</g>
			</g>
			<g class="st14">
				<g>
					<g>
						<g>
							<path d="M526.1,390.4c-0.9,8.7,3,19,7.5,26.6c4.5,7.5,11.5,13.6,19.6,17c0.9,0.4,2.1,0.7,2.8,0.1c0.6-0.5,0.7-1.4,0.7-2.2
								c0.1-9.2-2.9-18.4-8.4-25.8C542.8,398.6,534.9,393,526.1,390.4"/>
						</g>
					</g>
				</g>
			</g>
			<g>
				<g>
					<g>
						<g>
							<g>
								<path class="st7" d="M564.2,452.2c0,0-0.1-0.2-0.2-0.5c-0.2-0.4-0.4-0.9-0.6-1.4c-0.5-1.2-1.3-3-2.3-5.3
									c-2-4.4-5-10.4-8.7-16.8c-3.7-6.4-7.5-11.9-10.4-15.8c-1.4-2-2.6-3.5-3.4-4.6c-0.4-0.5-0.7-0.9-0.9-1.2
									c-0.2-0.3-0.3-0.4-0.3-0.5c0,0,0.1,0.1,0.4,0.4c0.3,0.3,0.6,0.7,1,1.2c0.9,1,2.1,2.6,3.6,4.5c2.9,3.9,6.8,9.4,10.5,15.8
									c3.7,6.4,6.7,12.4,8.6,16.9c1,2.2,1.7,4,2.2,5.3c0.2,0.6,0.4,1.1,0.5,1.5C564.1,452,564.2,452.2,564.2,452.2z"/>
							</g>
						</g>
					</g>
				</g>
			</g>
			<g>
				<g>
					<g>
						<g>
							<g>
								<path class="st7" d="M558.5,368.9c0,0,0,0.3,0.1,0.8c0,0.6,0.1,1.4,0.2,2.4c0.1,2.1,0.3,5.2,0.6,8.9
									c0.5,7.5,1.1,17.8,1.9,29.2c0.8,11.4,1.6,21.7,2.2,29.2c0.3,3.7,0.5,6.7,0.7,8.8c0.1,1,0.1,1.8,0.2,2.4c0,0.6,0,0.8,0,0.8
									c0,0-0.1-0.3-0.1-0.8c-0.1-0.6-0.1-1.4-0.3-2.4c-0.2-2.1-0.5-5.1-0.8-8.8c-0.7-7.5-1.5-17.8-2.3-29.2
									c-0.8-11.4-1.4-21.7-1.8-29.2c-0.2-3.7-0.3-6.7-0.4-8.9c0-1-0.1-1.8-0.1-2.4C558.5,369.2,558.5,368.9,558.5,368.9z"/>
							</g>
						</g>
					</g>
				</g>
			</g>
		</g>
		<g>
			<g>
				<g>
					<g>
						<path class="st7" d="M550.5,439.8h21.9v16.1c0,5.8-4.7,10.5-10.5,10.5l0,0c-5.6,0-10.2-4.4-10.5-9.9L550.5,439.8z"/>
					</g>
				</g>
			</g>
		</g>
	</g>
</g>
<g id="Lamp">
	<g>
		<g>
			<g>
				<g>
					<g>
						<polyline class="st9" points="439.6,227.9 491.8,256.8 489.9,260.5 438.1,231 439.6,227.9 						"/>
					</g>
				</g>
			</g>
			<g>
				<g>
					<g>
						<polygon class="st9" points="437.1,225.2 439.5,221.5 440.9,222.3 438.7,226.1 						"/>
					</g>
				</g>
			</g>
			<g>
				<g>
					<g>
						<polygon class="st9" points="485.9,252.2 488.6,253.8 479.8,309.5 475.7,309.6 						"/>
					</g>
				</g>
			</g>
			<g>
				<g>
					<g>
						<path class="st9" d="M463.7,315.4c0,0,6.4-6.4,14.9-6c8.5,0.5,12.9,5.9,12.9,5.9L463.7,315.4z"/>
					</g>
				</g>
			</g>
		</g>
		<g>
			<g>
				<path class="st9" d="M437.1,250.4l-20.7-11.9l6-10.3c3.3-5.7,10.6-7.7,16.3-4.4l0,0c5.7,3.3,7.7,10.6,4.4,16.3L437.1,250.4z"/>
			</g>
		</g>
	</g>
</g>
</svg>
